M48
; DRILL file {KiCad (5.1.6)-1} date 10/15/20 00:54:57
; FORMAT={2:4/ absolute / inch / suppress leading zeros}
; #@! TF.CreationDate,2020-10-15T00:54:57-04:00
; #@! TF.GenerationSoftware,Kicad,Pcbnew,(5.1.6)-1
; #@! TF.FileFunction,Plated,1,2,PTH
FMAT,2
INCH,TZ
T1C0.0315
T2C0.0394
%
G90
G05
T1
X52250Y-30500
X56250Y-30500
X36750Y-38000
X40750Y-38000
X52250Y-33000
X56250Y-33000
X50250Y-40500
X50250Y-44500
X42750Y-24500
X42750Y-28500
X47750Y-40500
X47750Y-44500
X47750Y-24500
X47750Y-28500
X36750Y-35500
X40750Y-35500
X50250Y-24500
X50250Y-28500
X52250Y-38000
X56250Y-38000
X45250Y-40500
X45250Y-44500
X36750Y-30500
X40750Y-30500
X36750Y-33000
X40750Y-33000
X45250Y-24500
X45250Y-28500
X52250Y-35500
X56250Y-35500
X42750Y-40500
X42750Y-44500
T2
X54250Y-26500
X54250Y-27500
T0
M30
