%TF.GenerationSoftware,KiCad,Pcbnew,(5.1.6)-1*%
%TF.CreationDate,2020-10-15T00:56:24-04:00*%
%TF.ProjectId,KiCAD PCB,4b694341-4420-4504-9342-2e6b69636164,rev?*%
%TF.SameCoordinates,Original*%
%TF.FileFunction,Legend,Bot*%
%TF.FilePolarity,Positive*%
%FSLAX46Y46*%
G04 Gerber Fmt 4.6, Leading zero omitted, Abs format (unit mm)*
G04 Created by KiCad (PCBNEW (5.1.6)-1) date 2020-10-15 00:56:24*
%MOMM*%
%LPD*%
G01*
G04 APERTURE LIST*
%ADD10C,0.120000*%
%ADD11C,0.150000*%
G04 APERTURE END LIST*
D10*
%TO.C,R16*%
X141065000Y-95150000D02*
X141065000Y-97890000D01*
X141065000Y-97890000D02*
X134525000Y-97890000D01*
X134525000Y-97890000D02*
X134525000Y-95150000D01*
X134525000Y-95150000D02*
X141065000Y-95150000D01*
X141835000Y-96520000D02*
X141065000Y-96520000D01*
X133755000Y-96520000D02*
X134525000Y-96520000D01*
%TO.C,R15*%
X141065000Y-88800000D02*
X141065000Y-91540000D01*
X141065000Y-91540000D02*
X134525000Y-91540000D01*
X134525000Y-91540000D02*
X134525000Y-88800000D01*
X134525000Y-88800000D02*
X141065000Y-88800000D01*
X141835000Y-90170000D02*
X141065000Y-90170000D01*
X133755000Y-90170000D02*
X134525000Y-90170000D01*
%TO.C,R14*%
X141065000Y-82450000D02*
X141065000Y-85190000D01*
X141065000Y-85190000D02*
X134525000Y-85190000D01*
X134525000Y-85190000D02*
X134525000Y-82450000D01*
X134525000Y-82450000D02*
X141065000Y-82450000D01*
X141835000Y-83820000D02*
X141065000Y-83820000D01*
X133755000Y-83820000D02*
X134525000Y-83820000D01*
%TO.C,R13*%
X141065000Y-76100000D02*
X141065000Y-78840000D01*
X141065000Y-78840000D02*
X134525000Y-78840000D01*
X134525000Y-78840000D02*
X134525000Y-76100000D01*
X134525000Y-76100000D02*
X141065000Y-76100000D01*
X141835000Y-77470000D02*
X141065000Y-77470000D01*
X133755000Y-77470000D02*
X134525000Y-77470000D01*
%TO.C,R12*%
X126265000Y-104680000D02*
X129005000Y-104680000D01*
X129005000Y-104680000D02*
X129005000Y-111220000D01*
X129005000Y-111220000D02*
X126265000Y-111220000D01*
X126265000Y-111220000D02*
X126265000Y-104680000D01*
X127635000Y-103910000D02*
X127635000Y-104680000D01*
X127635000Y-111990000D02*
X127635000Y-111220000D01*
%TO.C,R11*%
X129005000Y-70580000D02*
X126265000Y-70580000D01*
X126265000Y-70580000D02*
X126265000Y-64040000D01*
X126265000Y-64040000D02*
X129005000Y-64040000D01*
X129005000Y-64040000D02*
X129005000Y-70580000D01*
X127635000Y-71350000D02*
X127635000Y-70580000D01*
X127635000Y-63270000D02*
X127635000Y-64040000D01*
%TO.C,R10*%
X119915000Y-104680000D02*
X122655000Y-104680000D01*
X122655000Y-104680000D02*
X122655000Y-111220000D01*
X122655000Y-111220000D02*
X119915000Y-111220000D01*
X119915000Y-111220000D02*
X119915000Y-104680000D01*
X121285000Y-103910000D02*
X121285000Y-104680000D01*
X121285000Y-111990000D02*
X121285000Y-111220000D01*
%TO.C,R9*%
X122655000Y-70580000D02*
X119915000Y-70580000D01*
X119915000Y-70580000D02*
X119915000Y-64040000D01*
X119915000Y-64040000D02*
X122655000Y-64040000D01*
X122655000Y-64040000D02*
X122655000Y-70580000D01*
X121285000Y-71350000D02*
X121285000Y-70580000D01*
X121285000Y-63270000D02*
X121285000Y-64040000D01*
%TO.C,R8*%
X113565000Y-104680000D02*
X116305000Y-104680000D01*
X116305000Y-104680000D02*
X116305000Y-111220000D01*
X116305000Y-111220000D02*
X113565000Y-111220000D01*
X113565000Y-111220000D02*
X113565000Y-104680000D01*
X114935000Y-103910000D02*
X114935000Y-104680000D01*
X114935000Y-111990000D02*
X114935000Y-111220000D01*
%TO.C,R7*%
X116305000Y-70580000D02*
X113565000Y-70580000D01*
X113565000Y-70580000D02*
X113565000Y-64040000D01*
X113565000Y-64040000D02*
X116305000Y-64040000D01*
X116305000Y-64040000D02*
X116305000Y-70580000D01*
X114935000Y-71350000D02*
X114935000Y-70580000D01*
X114935000Y-63270000D02*
X114935000Y-64040000D01*
%TO.C,R6*%
X107215000Y-104680000D02*
X109955000Y-104680000D01*
X109955000Y-104680000D02*
X109955000Y-111220000D01*
X109955000Y-111220000D02*
X107215000Y-111220000D01*
X107215000Y-111220000D02*
X107215000Y-104680000D01*
X108585000Y-103910000D02*
X108585000Y-104680000D01*
X108585000Y-111990000D02*
X108585000Y-111220000D01*
%TO.C,R5*%
X109955000Y-70580000D02*
X107215000Y-70580000D01*
X107215000Y-70580000D02*
X107215000Y-64040000D01*
X107215000Y-64040000D02*
X109955000Y-64040000D01*
X109955000Y-64040000D02*
X109955000Y-70580000D01*
X108585000Y-71350000D02*
X108585000Y-70580000D01*
X108585000Y-63270000D02*
X108585000Y-64040000D01*
%TO.C,R4*%
X95155000Y-97890000D02*
X95155000Y-95150000D01*
X95155000Y-95150000D02*
X101695000Y-95150000D01*
X101695000Y-95150000D02*
X101695000Y-97890000D01*
X101695000Y-97890000D02*
X95155000Y-97890000D01*
X94385000Y-96520000D02*
X95155000Y-96520000D01*
X102465000Y-96520000D02*
X101695000Y-96520000D01*
%TO.C,R3*%
X95155000Y-91540000D02*
X95155000Y-88800000D01*
X95155000Y-88800000D02*
X101695000Y-88800000D01*
X101695000Y-88800000D02*
X101695000Y-91540000D01*
X101695000Y-91540000D02*
X95155000Y-91540000D01*
X94385000Y-90170000D02*
X95155000Y-90170000D01*
X102465000Y-90170000D02*
X101695000Y-90170000D01*
%TO.C,R2*%
X95155000Y-85190000D02*
X95155000Y-82450000D01*
X95155000Y-82450000D02*
X101695000Y-82450000D01*
X101695000Y-82450000D02*
X101695000Y-85190000D01*
X101695000Y-85190000D02*
X95155000Y-85190000D01*
X94385000Y-83820000D02*
X95155000Y-83820000D01*
X102465000Y-83820000D02*
X101695000Y-83820000D01*
%TO.C,R1*%
X95155000Y-78840000D02*
X95155000Y-76100000D01*
X95155000Y-76100000D02*
X101695000Y-76100000D01*
X101695000Y-76100000D02*
X101695000Y-78840000D01*
X101695000Y-78840000D02*
X95155000Y-78840000D01*
X94385000Y-77470000D02*
X95155000Y-77470000D01*
X102465000Y-77470000D02*
X101695000Y-77470000D01*
%TO.C,R16*%
D11*
X138437857Y-94602380D02*
X138771190Y-94126190D01*
X139009285Y-94602380D02*
X139009285Y-93602380D01*
X138628333Y-93602380D01*
X138533095Y-93650000D01*
X138485476Y-93697619D01*
X138437857Y-93792857D01*
X138437857Y-93935714D01*
X138485476Y-94030952D01*
X138533095Y-94078571D01*
X138628333Y-94126190D01*
X139009285Y-94126190D01*
X137485476Y-94602380D02*
X138056904Y-94602380D01*
X137771190Y-94602380D02*
X137771190Y-93602380D01*
X137866428Y-93745238D01*
X137961666Y-93840476D01*
X138056904Y-93888095D01*
X136628333Y-93602380D02*
X136818809Y-93602380D01*
X136914047Y-93650000D01*
X136961666Y-93697619D01*
X137056904Y-93840476D01*
X137104523Y-94030952D01*
X137104523Y-94411904D01*
X137056904Y-94507142D01*
X137009285Y-94554761D01*
X136914047Y-94602380D01*
X136723571Y-94602380D01*
X136628333Y-94554761D01*
X136580714Y-94507142D01*
X136533095Y-94411904D01*
X136533095Y-94173809D01*
X136580714Y-94078571D01*
X136628333Y-94030952D01*
X136723571Y-93983333D01*
X136914047Y-93983333D01*
X137009285Y-94030952D01*
X137056904Y-94078571D01*
X137104523Y-94173809D01*
%TO.C,R15*%
X138437857Y-88252380D02*
X138771190Y-87776190D01*
X139009285Y-88252380D02*
X139009285Y-87252380D01*
X138628333Y-87252380D01*
X138533095Y-87300000D01*
X138485476Y-87347619D01*
X138437857Y-87442857D01*
X138437857Y-87585714D01*
X138485476Y-87680952D01*
X138533095Y-87728571D01*
X138628333Y-87776190D01*
X139009285Y-87776190D01*
X137485476Y-88252380D02*
X138056904Y-88252380D01*
X137771190Y-88252380D02*
X137771190Y-87252380D01*
X137866428Y-87395238D01*
X137961666Y-87490476D01*
X138056904Y-87538095D01*
X136580714Y-87252380D02*
X137056904Y-87252380D01*
X137104523Y-87728571D01*
X137056904Y-87680952D01*
X136961666Y-87633333D01*
X136723571Y-87633333D01*
X136628333Y-87680952D01*
X136580714Y-87728571D01*
X136533095Y-87823809D01*
X136533095Y-88061904D01*
X136580714Y-88157142D01*
X136628333Y-88204761D01*
X136723571Y-88252380D01*
X136961666Y-88252380D01*
X137056904Y-88204761D01*
X137104523Y-88157142D01*
%TO.C,R14*%
X138437857Y-81902380D02*
X138771190Y-81426190D01*
X139009285Y-81902380D02*
X139009285Y-80902380D01*
X138628333Y-80902380D01*
X138533095Y-80950000D01*
X138485476Y-80997619D01*
X138437857Y-81092857D01*
X138437857Y-81235714D01*
X138485476Y-81330952D01*
X138533095Y-81378571D01*
X138628333Y-81426190D01*
X139009285Y-81426190D01*
X137485476Y-81902380D02*
X138056904Y-81902380D01*
X137771190Y-81902380D02*
X137771190Y-80902380D01*
X137866428Y-81045238D01*
X137961666Y-81140476D01*
X138056904Y-81188095D01*
X136628333Y-81235714D02*
X136628333Y-81902380D01*
X136866428Y-80854761D02*
X137104523Y-81569047D01*
X136485476Y-81569047D01*
%TO.C,R13*%
X138437857Y-75552380D02*
X138771190Y-75076190D01*
X139009285Y-75552380D02*
X139009285Y-74552380D01*
X138628333Y-74552380D01*
X138533095Y-74600000D01*
X138485476Y-74647619D01*
X138437857Y-74742857D01*
X138437857Y-74885714D01*
X138485476Y-74980952D01*
X138533095Y-75028571D01*
X138628333Y-75076190D01*
X139009285Y-75076190D01*
X137485476Y-75552380D02*
X138056904Y-75552380D01*
X137771190Y-75552380D02*
X137771190Y-74552380D01*
X137866428Y-74695238D01*
X137961666Y-74790476D01*
X138056904Y-74838095D01*
X137152142Y-74552380D02*
X136533095Y-74552380D01*
X136866428Y-74933333D01*
X136723571Y-74933333D01*
X136628333Y-74980952D01*
X136580714Y-75028571D01*
X136533095Y-75123809D01*
X136533095Y-75361904D01*
X136580714Y-75457142D01*
X136628333Y-75504761D01*
X136723571Y-75552380D01*
X137009285Y-75552380D01*
X137104523Y-75504761D01*
X137152142Y-75457142D01*
%TO.C,R12*%
X125717380Y-107307142D02*
X125241190Y-106973809D01*
X125717380Y-106735714D02*
X124717380Y-106735714D01*
X124717380Y-107116666D01*
X124765000Y-107211904D01*
X124812619Y-107259523D01*
X124907857Y-107307142D01*
X125050714Y-107307142D01*
X125145952Y-107259523D01*
X125193571Y-107211904D01*
X125241190Y-107116666D01*
X125241190Y-106735714D01*
X125717380Y-108259523D02*
X125717380Y-107688095D01*
X125717380Y-107973809D02*
X124717380Y-107973809D01*
X124860238Y-107878571D01*
X124955476Y-107783333D01*
X125003095Y-107688095D01*
X124812619Y-108640476D02*
X124765000Y-108688095D01*
X124717380Y-108783333D01*
X124717380Y-109021428D01*
X124765000Y-109116666D01*
X124812619Y-109164285D01*
X124907857Y-109211904D01*
X125003095Y-109211904D01*
X125145952Y-109164285D01*
X125717380Y-108592857D01*
X125717380Y-109211904D01*
%TO.C,R11*%
X130457380Y-66667142D02*
X129981190Y-66333809D01*
X130457380Y-66095714D02*
X129457380Y-66095714D01*
X129457380Y-66476666D01*
X129505000Y-66571904D01*
X129552619Y-66619523D01*
X129647857Y-66667142D01*
X129790714Y-66667142D01*
X129885952Y-66619523D01*
X129933571Y-66571904D01*
X129981190Y-66476666D01*
X129981190Y-66095714D01*
X130457380Y-67619523D02*
X130457380Y-67048095D01*
X130457380Y-67333809D02*
X129457380Y-67333809D01*
X129600238Y-67238571D01*
X129695476Y-67143333D01*
X129743095Y-67048095D01*
X130457380Y-68571904D02*
X130457380Y-68000476D01*
X130457380Y-68286190D02*
X129457380Y-68286190D01*
X129600238Y-68190952D01*
X129695476Y-68095714D01*
X129743095Y-68000476D01*
%TO.C,R10*%
X119367380Y-107307142D02*
X118891190Y-106973809D01*
X119367380Y-106735714D02*
X118367380Y-106735714D01*
X118367380Y-107116666D01*
X118415000Y-107211904D01*
X118462619Y-107259523D01*
X118557857Y-107307142D01*
X118700714Y-107307142D01*
X118795952Y-107259523D01*
X118843571Y-107211904D01*
X118891190Y-107116666D01*
X118891190Y-106735714D01*
X119367380Y-108259523D02*
X119367380Y-107688095D01*
X119367380Y-107973809D02*
X118367380Y-107973809D01*
X118510238Y-107878571D01*
X118605476Y-107783333D01*
X118653095Y-107688095D01*
X118367380Y-108878571D02*
X118367380Y-108973809D01*
X118415000Y-109069047D01*
X118462619Y-109116666D01*
X118557857Y-109164285D01*
X118748333Y-109211904D01*
X118986428Y-109211904D01*
X119176904Y-109164285D01*
X119272142Y-109116666D01*
X119319761Y-109069047D01*
X119367380Y-108973809D01*
X119367380Y-108878571D01*
X119319761Y-108783333D01*
X119272142Y-108735714D01*
X119176904Y-108688095D01*
X118986428Y-108640476D01*
X118748333Y-108640476D01*
X118557857Y-108688095D01*
X118462619Y-108735714D01*
X118415000Y-108783333D01*
X118367380Y-108878571D01*
%TO.C,R9*%
X124107380Y-67143333D02*
X123631190Y-66810000D01*
X124107380Y-66571904D02*
X123107380Y-66571904D01*
X123107380Y-66952857D01*
X123155000Y-67048095D01*
X123202619Y-67095714D01*
X123297857Y-67143333D01*
X123440714Y-67143333D01*
X123535952Y-67095714D01*
X123583571Y-67048095D01*
X123631190Y-66952857D01*
X123631190Y-66571904D01*
X124107380Y-67619523D02*
X124107380Y-67810000D01*
X124059761Y-67905238D01*
X124012142Y-67952857D01*
X123869285Y-68048095D01*
X123678809Y-68095714D01*
X123297857Y-68095714D01*
X123202619Y-68048095D01*
X123155000Y-68000476D01*
X123107380Y-67905238D01*
X123107380Y-67714761D01*
X123155000Y-67619523D01*
X123202619Y-67571904D01*
X123297857Y-67524285D01*
X123535952Y-67524285D01*
X123631190Y-67571904D01*
X123678809Y-67619523D01*
X123726428Y-67714761D01*
X123726428Y-67905238D01*
X123678809Y-68000476D01*
X123631190Y-68048095D01*
X123535952Y-68095714D01*
%TO.C,R8*%
X113017380Y-107783333D02*
X112541190Y-107450000D01*
X113017380Y-107211904D02*
X112017380Y-107211904D01*
X112017380Y-107592857D01*
X112065000Y-107688095D01*
X112112619Y-107735714D01*
X112207857Y-107783333D01*
X112350714Y-107783333D01*
X112445952Y-107735714D01*
X112493571Y-107688095D01*
X112541190Y-107592857D01*
X112541190Y-107211904D01*
X112445952Y-108354761D02*
X112398333Y-108259523D01*
X112350714Y-108211904D01*
X112255476Y-108164285D01*
X112207857Y-108164285D01*
X112112619Y-108211904D01*
X112065000Y-108259523D01*
X112017380Y-108354761D01*
X112017380Y-108545238D01*
X112065000Y-108640476D01*
X112112619Y-108688095D01*
X112207857Y-108735714D01*
X112255476Y-108735714D01*
X112350714Y-108688095D01*
X112398333Y-108640476D01*
X112445952Y-108545238D01*
X112445952Y-108354761D01*
X112493571Y-108259523D01*
X112541190Y-108211904D01*
X112636428Y-108164285D01*
X112826904Y-108164285D01*
X112922142Y-108211904D01*
X112969761Y-108259523D01*
X113017380Y-108354761D01*
X113017380Y-108545238D01*
X112969761Y-108640476D01*
X112922142Y-108688095D01*
X112826904Y-108735714D01*
X112636428Y-108735714D01*
X112541190Y-108688095D01*
X112493571Y-108640476D01*
X112445952Y-108545238D01*
%TO.C,R7*%
X117757380Y-67143333D02*
X117281190Y-66810000D01*
X117757380Y-66571904D02*
X116757380Y-66571904D01*
X116757380Y-66952857D01*
X116805000Y-67048095D01*
X116852619Y-67095714D01*
X116947857Y-67143333D01*
X117090714Y-67143333D01*
X117185952Y-67095714D01*
X117233571Y-67048095D01*
X117281190Y-66952857D01*
X117281190Y-66571904D01*
X116757380Y-67476666D02*
X116757380Y-68143333D01*
X117757380Y-67714761D01*
%TO.C,R6*%
X106667380Y-107783333D02*
X106191190Y-107450000D01*
X106667380Y-107211904D02*
X105667380Y-107211904D01*
X105667380Y-107592857D01*
X105715000Y-107688095D01*
X105762619Y-107735714D01*
X105857857Y-107783333D01*
X106000714Y-107783333D01*
X106095952Y-107735714D01*
X106143571Y-107688095D01*
X106191190Y-107592857D01*
X106191190Y-107211904D01*
X105667380Y-108640476D02*
X105667380Y-108450000D01*
X105715000Y-108354761D01*
X105762619Y-108307142D01*
X105905476Y-108211904D01*
X106095952Y-108164285D01*
X106476904Y-108164285D01*
X106572142Y-108211904D01*
X106619761Y-108259523D01*
X106667380Y-108354761D01*
X106667380Y-108545238D01*
X106619761Y-108640476D01*
X106572142Y-108688095D01*
X106476904Y-108735714D01*
X106238809Y-108735714D01*
X106143571Y-108688095D01*
X106095952Y-108640476D01*
X106048333Y-108545238D01*
X106048333Y-108354761D01*
X106095952Y-108259523D01*
X106143571Y-108211904D01*
X106238809Y-108164285D01*
%TO.C,R5*%
X111407380Y-67143333D02*
X110931190Y-66810000D01*
X111407380Y-66571904D02*
X110407380Y-66571904D01*
X110407380Y-66952857D01*
X110455000Y-67048095D01*
X110502619Y-67095714D01*
X110597857Y-67143333D01*
X110740714Y-67143333D01*
X110835952Y-67095714D01*
X110883571Y-67048095D01*
X110931190Y-66952857D01*
X110931190Y-66571904D01*
X110407380Y-68048095D02*
X110407380Y-67571904D01*
X110883571Y-67524285D01*
X110835952Y-67571904D01*
X110788333Y-67667142D01*
X110788333Y-67905238D01*
X110835952Y-68000476D01*
X110883571Y-68048095D01*
X110978809Y-68095714D01*
X111216904Y-68095714D01*
X111312142Y-68048095D01*
X111359761Y-68000476D01*
X111407380Y-67905238D01*
X111407380Y-67667142D01*
X111359761Y-67571904D01*
X111312142Y-67524285D01*
%TO.C,R4*%
X98591666Y-99342380D02*
X98925000Y-98866190D01*
X99163095Y-99342380D02*
X99163095Y-98342380D01*
X98782142Y-98342380D01*
X98686904Y-98390000D01*
X98639285Y-98437619D01*
X98591666Y-98532857D01*
X98591666Y-98675714D01*
X98639285Y-98770952D01*
X98686904Y-98818571D01*
X98782142Y-98866190D01*
X99163095Y-98866190D01*
X97734523Y-98675714D02*
X97734523Y-99342380D01*
X97972619Y-98294761D02*
X98210714Y-99009047D01*
X97591666Y-99009047D01*
%TO.C,R3*%
X98591666Y-92992380D02*
X98925000Y-92516190D01*
X99163095Y-92992380D02*
X99163095Y-91992380D01*
X98782142Y-91992380D01*
X98686904Y-92040000D01*
X98639285Y-92087619D01*
X98591666Y-92182857D01*
X98591666Y-92325714D01*
X98639285Y-92420952D01*
X98686904Y-92468571D01*
X98782142Y-92516190D01*
X99163095Y-92516190D01*
X98258333Y-91992380D02*
X97639285Y-91992380D01*
X97972619Y-92373333D01*
X97829761Y-92373333D01*
X97734523Y-92420952D01*
X97686904Y-92468571D01*
X97639285Y-92563809D01*
X97639285Y-92801904D01*
X97686904Y-92897142D01*
X97734523Y-92944761D01*
X97829761Y-92992380D01*
X98115476Y-92992380D01*
X98210714Y-92944761D01*
X98258333Y-92897142D01*
%TO.C,R2*%
X98591666Y-86642380D02*
X98925000Y-86166190D01*
X99163095Y-86642380D02*
X99163095Y-85642380D01*
X98782142Y-85642380D01*
X98686904Y-85690000D01*
X98639285Y-85737619D01*
X98591666Y-85832857D01*
X98591666Y-85975714D01*
X98639285Y-86070952D01*
X98686904Y-86118571D01*
X98782142Y-86166190D01*
X99163095Y-86166190D01*
X98210714Y-85737619D02*
X98163095Y-85690000D01*
X98067857Y-85642380D01*
X97829761Y-85642380D01*
X97734523Y-85690000D01*
X97686904Y-85737619D01*
X97639285Y-85832857D01*
X97639285Y-85928095D01*
X97686904Y-86070952D01*
X98258333Y-86642380D01*
X97639285Y-86642380D01*
%TO.C,R1*%
X98591666Y-80292380D02*
X98925000Y-79816190D01*
X99163095Y-80292380D02*
X99163095Y-79292380D01*
X98782142Y-79292380D01*
X98686904Y-79340000D01*
X98639285Y-79387619D01*
X98591666Y-79482857D01*
X98591666Y-79625714D01*
X98639285Y-79720952D01*
X98686904Y-79768571D01*
X98782142Y-79816190D01*
X99163095Y-79816190D01*
X97639285Y-80292380D02*
X98210714Y-80292380D01*
X97925000Y-80292380D02*
X97925000Y-79292380D01*
X98020238Y-79435238D01*
X98115476Y-79530476D01*
X98210714Y-79578095D01*
%TD*%
M02*
