%TF.GenerationSoftware,KiCad,Pcbnew,(5.1.6)-1*%
%TF.CreationDate,2020-10-15T00:56:24-04:00*%
%TF.ProjectId,KiCAD PCB,4b694341-4420-4504-9342-2e6b69636164,rev?*%
%TF.SameCoordinates,Original*%
%TF.FileFunction,Soldermask,Top*%
%TF.FilePolarity,Negative*%
%FSLAX46Y46*%
G04 Gerber Fmt 4.6, Leading zero omitted, Abs format (unit mm)*
G04 Created by KiCad (PCBNEW (5.1.6)-1) date 2020-10-15 00:56:24*
%MOMM*%
%LPD*%
G01*
G04 APERTURE LIST*
%ADD10O,1.700000X1.700000*%
%ADD11C,1.700000*%
%ADD12R,1.130000X2.500000*%
%ADD13R,2.080000X2.500000*%
%ADD14R,2.500000X1.130000*%
%ADD15R,2.500000X2.080000*%
%ADD16O,1.800000X1.800000*%
%ADD17R,1.800000X1.800000*%
G04 APERTURE END LIST*
D10*
%TO.C,R16*%
X132715000Y-96520000D03*
D11*
X142875000Y-96520000D03*
%TD*%
D10*
%TO.C,R15*%
X132715000Y-90170000D03*
D11*
X142875000Y-90170000D03*
%TD*%
D10*
%TO.C,R14*%
X132715000Y-83820000D03*
D11*
X142875000Y-83820000D03*
%TD*%
D10*
%TO.C,R13*%
X132715000Y-77470000D03*
D11*
X142875000Y-77470000D03*
%TD*%
D10*
%TO.C,R12*%
X127635000Y-113030000D03*
D11*
X127635000Y-102870000D03*
%TD*%
D10*
%TO.C,R11*%
X127635000Y-62230000D03*
D11*
X127635000Y-72390000D03*
%TD*%
D10*
%TO.C,R10*%
X121285000Y-113030000D03*
D11*
X121285000Y-102870000D03*
%TD*%
D10*
%TO.C,R9*%
X121285000Y-62230000D03*
D11*
X121285000Y-72390000D03*
%TD*%
D10*
%TO.C,R8*%
X114935000Y-113030000D03*
D11*
X114935000Y-102870000D03*
%TD*%
D10*
%TO.C,R7*%
X114935000Y-62230000D03*
D11*
X114935000Y-72390000D03*
%TD*%
D10*
%TO.C,R6*%
X108585000Y-113030000D03*
D11*
X108585000Y-102870000D03*
%TD*%
D10*
%TO.C,R5*%
X108585000Y-62230000D03*
D11*
X108585000Y-72390000D03*
%TD*%
D10*
%TO.C,R4*%
X103505000Y-96520000D03*
D11*
X93345000Y-96520000D03*
%TD*%
D10*
%TO.C,R3*%
X103505000Y-90170000D03*
D11*
X93345000Y-90170000D03*
%TD*%
D10*
%TO.C,R2*%
X103505000Y-83820000D03*
D11*
X93345000Y-83820000D03*
%TD*%
D10*
%TO.C,R1*%
X103505000Y-77470000D03*
D11*
X93345000Y-77470000D03*
%TD*%
D12*
%TO.C,D16*%
X135255000Y-96520000D03*
D13*
X137460000Y-96520000D03*
%TD*%
D12*
%TO.C,D15*%
X135255000Y-90170000D03*
D13*
X137460000Y-90170000D03*
%TD*%
D12*
%TO.C,D14*%
X135255000Y-83820000D03*
D13*
X137460000Y-83820000D03*
%TD*%
D12*
%TO.C,D13*%
X135255000Y-77470000D03*
D13*
X137460000Y-77470000D03*
%TD*%
D14*
%TO.C,D12*%
X127635000Y-105745000D03*
D15*
X127635000Y-107950000D03*
%TD*%
D14*
%TO.C,D11*%
X127635000Y-69515000D03*
D15*
X127635000Y-67310000D03*
%TD*%
D14*
%TO.C,D10*%
X121285000Y-105745000D03*
D15*
X121285000Y-107950000D03*
%TD*%
D14*
%TO.C,D9*%
X121285000Y-69515000D03*
D15*
X121285000Y-67310000D03*
%TD*%
D14*
%TO.C,D8*%
X114935000Y-105745000D03*
D15*
X114935000Y-107950000D03*
%TD*%
D14*
%TO.C,D7*%
X114935000Y-69515000D03*
D15*
X114935000Y-67310000D03*
%TD*%
D14*
%TO.C,D6*%
X108585000Y-105745000D03*
D15*
X108585000Y-107950000D03*
%TD*%
D14*
%TO.C,D5*%
X108585000Y-69515000D03*
D15*
X108585000Y-67310000D03*
%TD*%
D12*
%TO.C,D4*%
X100630000Y-96520000D03*
D13*
X98425000Y-96520000D03*
%TD*%
D12*
%TO.C,D3*%
X100630000Y-90170000D03*
D13*
X98425000Y-90170000D03*
%TD*%
D12*
%TO.C,D2*%
X100630000Y-83820000D03*
D13*
X98425000Y-83820000D03*
%TD*%
D12*
%TO.C,D1*%
X100630000Y-77470000D03*
D13*
X98425000Y-77470000D03*
%TD*%
D16*
%TO.C,BT1*%
X137795000Y-69850000D03*
D17*
X137795000Y-67310000D03*
%TD*%
M02*
