%TF.GenerationSoftware,KiCad,Pcbnew,(5.1.6)-1*%
%TF.CreationDate,2020-10-17T14:01:34-04:00*%
%TF.ProjectId,KiCAD PCB,4b694341-4420-4504-9342-2e6b69636164,rev?*%
%TF.SameCoordinates,Original*%
%TF.FileFunction,Soldermask,Top*%
%TF.FilePolarity,Negative*%
%FSLAX46Y46*%
G04 Gerber Fmt 4.6, Leading zero omitted, Abs format (unit mm)*
G04 Created by KiCad (PCBNEW (5.1.6)-1) date 2020-10-17 14:01:34*
%MOMM*%
%LPD*%
G01*
G04 APERTURE LIST*
%ADD10O,1.700000X1.700000*%
%ADD11C,1.700000*%
%ADD12R,1.130000X2.500000*%
%ADD13R,2.080000X2.500000*%
%ADD14R,2.500000X1.130000*%
%ADD15R,2.500000X2.080000*%
%ADD16O,1.800000X1.800000*%
%ADD17R,1.800000X1.800000*%
G04 APERTURE END LIST*
D10*
%TO.C,R16*%
X131953000Y-96520000D03*
D11*
X142113000Y-96520000D03*
%TD*%
D10*
%TO.C,R15*%
X131953000Y-90170000D03*
D11*
X142113000Y-90170000D03*
%TD*%
D10*
%TO.C,R14*%
X131953000Y-83820000D03*
D11*
X142113000Y-83820000D03*
%TD*%
D10*
%TO.C,R13*%
X131953000Y-77470000D03*
D11*
X142113000Y-77470000D03*
%TD*%
D10*
%TO.C,R12*%
X127635000Y-110490000D03*
D11*
X127635000Y-100330000D03*
%TD*%
D10*
%TO.C,R11*%
X127635000Y-63500000D03*
D11*
X127635000Y-73660000D03*
%TD*%
D10*
%TO.C,R10*%
X121285000Y-110490000D03*
D11*
X121285000Y-100330000D03*
%TD*%
D10*
%TO.C,R9*%
X121285000Y-63500000D03*
D11*
X121285000Y-73660000D03*
%TD*%
D10*
%TO.C,R8*%
X114935000Y-110490000D03*
D11*
X114935000Y-100330000D03*
%TD*%
D10*
%TO.C,R7*%
X114935000Y-63500000D03*
D11*
X114935000Y-73660000D03*
%TD*%
D10*
%TO.C,R6*%
X108585000Y-110490000D03*
D11*
X108585000Y-100330000D03*
%TD*%
D10*
%TO.C,R5*%
X108585000Y-63500000D03*
D11*
X108585000Y-73660000D03*
%TD*%
D10*
%TO.C,R4*%
X104267000Y-96520000D03*
D11*
X94107000Y-96520000D03*
%TD*%
D10*
%TO.C,R3*%
X104267000Y-90170000D03*
D11*
X94107000Y-90170000D03*
%TD*%
D10*
%TO.C,R2*%
X104267000Y-83820000D03*
D11*
X94107000Y-83820000D03*
%TD*%
D10*
%TO.C,R1*%
X104267000Y-77470000D03*
D11*
X94107000Y-77470000D03*
%TD*%
D12*
%TO.C,D16*%
X134493000Y-96520000D03*
D13*
X136698000Y-96520000D03*
%TD*%
D12*
%TO.C,D15*%
X134493000Y-90170000D03*
D13*
X136698000Y-90170000D03*
%TD*%
D12*
%TO.C,D14*%
X134493000Y-83820000D03*
D13*
X136698000Y-83820000D03*
%TD*%
D12*
%TO.C,D13*%
X134493000Y-77470000D03*
D13*
X136698000Y-77470000D03*
%TD*%
D14*
%TO.C,D12*%
X127635000Y-103205000D03*
D15*
X127635000Y-105410000D03*
%TD*%
D14*
%TO.C,D11*%
X127635000Y-70785000D03*
D15*
X127635000Y-68580000D03*
%TD*%
D14*
%TO.C,D10*%
X121285000Y-103205000D03*
D15*
X121285000Y-105410000D03*
%TD*%
D14*
%TO.C,D9*%
X121285000Y-70785000D03*
D15*
X121285000Y-68580000D03*
%TD*%
D14*
%TO.C,D8*%
X114935000Y-103205000D03*
D15*
X114935000Y-105410000D03*
%TD*%
D14*
%TO.C,D7*%
X114935000Y-70785000D03*
D15*
X114935000Y-68580000D03*
%TD*%
D14*
%TO.C,D6*%
X108585000Y-103205000D03*
D15*
X108585000Y-105410000D03*
%TD*%
D14*
%TO.C,D5*%
X108585000Y-70785000D03*
D15*
X108585000Y-68580000D03*
%TD*%
D12*
%TO.C,D4*%
X101392000Y-96520000D03*
D13*
X99187000Y-96520000D03*
%TD*%
D12*
%TO.C,D3*%
X101392000Y-90170000D03*
D13*
X99187000Y-90170000D03*
%TD*%
D12*
%TO.C,D2*%
X101392000Y-83820000D03*
D13*
X99187000Y-83820000D03*
%TD*%
D12*
%TO.C,D1*%
X101392000Y-77470000D03*
D13*
X99187000Y-77470000D03*
%TD*%
D16*
%TO.C,BT1*%
X132080000Y-73406000D03*
D17*
X132080000Y-70866000D03*
%TD*%
M02*
