%TF.GenerationSoftware,KiCad,Pcbnew,(5.1.6)-1*%
%TF.CreationDate,2020-10-16T05:05:44-04:00*%
%TF.ProjectId,KiCAD PCB,4b694341-4420-4504-9342-2e6b69636164,rev?*%
%TF.SameCoordinates,Original*%
%TF.FileFunction,Copper,L1,Top*%
%TF.FilePolarity,Positive*%
%FSLAX46Y46*%
G04 Gerber Fmt 4.6, Leading zero omitted, Abs format (unit mm)*
G04 Created by KiCad (PCBNEW (5.1.6)-1) date 2020-10-16 05:05:44*
%MOMM*%
%LPD*%
G01*
G04 APERTURE LIST*
%TA.AperFunction,ComponentPad*%
%ADD10O,1.600000X1.600000*%
%TD*%
%TA.AperFunction,ComponentPad*%
%ADD11C,1.600000*%
%TD*%
%TA.AperFunction,SMDPad,CuDef*%
%ADD12R,1.030000X2.400000*%
%TD*%
%TA.AperFunction,SMDPad,CuDef*%
%ADD13R,1.980000X2.400000*%
%TD*%
%TA.AperFunction,SMDPad,CuDef*%
%ADD14R,2.400000X1.030000*%
%TD*%
%TA.AperFunction,SMDPad,CuDef*%
%ADD15R,2.400000X1.980000*%
%TD*%
%TA.AperFunction,ComponentPad*%
%ADD16O,1.700000X1.700000*%
%TD*%
%TA.AperFunction,ComponentPad*%
%ADD17R,1.700000X1.700000*%
%TD*%
%TA.AperFunction,Conductor*%
%ADD18C,0.250000*%
%TD*%
%TA.AperFunction,Conductor*%
%ADD19C,0.750000*%
%TD*%
G04 APERTURE END LIST*
D10*
%TO.P,R16,2*%
%TO.N,Net-(BT1-Pad2)*%
X131953000Y-96520000D03*
D11*
%TO.P,R16,1*%
%TO.N,Net-(D16-Pad1)*%
X142113000Y-96520000D03*
%TD*%
D10*
%TO.P,R15,2*%
%TO.N,Net-(BT1-Pad2)*%
X131953000Y-90170000D03*
D11*
%TO.P,R15,1*%
%TO.N,Net-(D15-Pad1)*%
X142113000Y-90170000D03*
%TD*%
D10*
%TO.P,R14,2*%
%TO.N,Net-(BT1-Pad2)*%
X131953000Y-83820000D03*
D11*
%TO.P,R14,1*%
%TO.N,Net-(D14-Pad1)*%
X142113000Y-83820000D03*
%TD*%
D10*
%TO.P,R13,2*%
%TO.N,Net-(BT1-Pad2)*%
X131953000Y-77470000D03*
D11*
%TO.P,R13,1*%
%TO.N,Net-(D13-Pad1)*%
X142113000Y-77470000D03*
%TD*%
D10*
%TO.P,R12,2*%
%TO.N,Net-(D12-Pad1)*%
X127635000Y-110490000D03*
D11*
%TO.P,R12,1*%
%TO.N,Net-(BT1-Pad2)*%
X127635000Y-100330000D03*
%TD*%
D10*
%TO.P,R11,2*%
%TO.N,Net-(D11-Pad1)*%
X127635000Y-63500000D03*
D11*
%TO.P,R11,1*%
%TO.N,Net-(BT1-Pad2)*%
X127635000Y-73660000D03*
%TD*%
D10*
%TO.P,R10,2*%
%TO.N,Net-(D10-Pad1)*%
X121285000Y-110490000D03*
D11*
%TO.P,R10,1*%
%TO.N,Net-(BT1-Pad2)*%
X121285000Y-100330000D03*
%TD*%
D10*
%TO.P,R9,2*%
%TO.N,Net-(D9-Pad1)*%
X121285000Y-63500000D03*
D11*
%TO.P,R9,1*%
%TO.N,Net-(BT1-Pad2)*%
X121285000Y-73660000D03*
%TD*%
D10*
%TO.P,R8,2*%
%TO.N,Net-(D8-Pad1)*%
X114935000Y-110490000D03*
D11*
%TO.P,R8,1*%
%TO.N,Net-(BT1-Pad2)*%
X114935000Y-100330000D03*
%TD*%
D10*
%TO.P,R7,2*%
%TO.N,Net-(D7-Pad1)*%
X114935000Y-63500000D03*
D11*
%TO.P,R7,1*%
%TO.N,Net-(BT1-Pad2)*%
X114935000Y-73660000D03*
%TD*%
D10*
%TO.P,R6,2*%
%TO.N,Net-(D6-Pad1)*%
X108585000Y-110490000D03*
D11*
%TO.P,R6,1*%
%TO.N,Net-(BT1-Pad2)*%
X108585000Y-100330000D03*
%TD*%
D10*
%TO.P,R5,2*%
%TO.N,Net-(D5-Pad1)*%
X108585000Y-63500000D03*
D11*
%TO.P,R5,1*%
%TO.N,Net-(BT1-Pad2)*%
X108585000Y-73660000D03*
%TD*%
D10*
%TO.P,R4,2*%
%TO.N,Net-(BT1-Pad2)*%
X104267000Y-96520000D03*
D11*
%TO.P,R4,1*%
%TO.N,Net-(D4-Pad1)*%
X94107000Y-96520000D03*
%TD*%
D10*
%TO.P,R3,2*%
%TO.N,Net-(BT1-Pad2)*%
X104267000Y-90170000D03*
D11*
%TO.P,R3,1*%
%TO.N,Net-(D3-Pad1)*%
X94107000Y-90170000D03*
%TD*%
D10*
%TO.P,R2,2*%
%TO.N,Net-(BT1-Pad2)*%
X104267000Y-83820000D03*
D11*
%TO.P,R2,1*%
%TO.N,Net-(D2-Pad1)*%
X94107000Y-83820000D03*
%TD*%
D10*
%TO.P,R1,2*%
%TO.N,Net-(BT1-Pad2)*%
X104267000Y-77470000D03*
D11*
%TO.P,R1,1*%
%TO.N,Net-(D1-Pad1)*%
X94107000Y-77470000D03*
%TD*%
D12*
%TO.P,D16,2*%
%TO.N,Net-(BT1-Pad1)*%
X134493000Y-96520000D03*
D13*
%TO.P,D16,1*%
%TO.N,Net-(D16-Pad1)*%
X136698000Y-96520000D03*
%TD*%
D12*
%TO.P,D15,2*%
%TO.N,Net-(BT1-Pad1)*%
X134493000Y-90170000D03*
D13*
%TO.P,D15,1*%
%TO.N,Net-(D15-Pad1)*%
X136698000Y-90170000D03*
%TD*%
D12*
%TO.P,D14,2*%
%TO.N,Net-(BT1-Pad1)*%
X134493000Y-83820000D03*
D13*
%TO.P,D14,1*%
%TO.N,Net-(D14-Pad1)*%
X136698000Y-83820000D03*
%TD*%
D12*
%TO.P,D13,2*%
%TO.N,Net-(BT1-Pad1)*%
X134493000Y-77470000D03*
D13*
%TO.P,D13,1*%
%TO.N,Net-(D13-Pad1)*%
X136698000Y-77470000D03*
%TD*%
D14*
%TO.P,D12,2*%
%TO.N,Net-(BT1-Pad1)*%
X127635000Y-103205000D03*
D15*
%TO.P,D12,1*%
%TO.N,Net-(D12-Pad1)*%
X127635000Y-105410000D03*
%TD*%
D14*
%TO.P,D11,2*%
%TO.N,Net-(BT1-Pad1)*%
X127635000Y-70785000D03*
D15*
%TO.P,D11,1*%
%TO.N,Net-(D11-Pad1)*%
X127635000Y-68580000D03*
%TD*%
D14*
%TO.P,D10,2*%
%TO.N,Net-(BT1-Pad1)*%
X121285000Y-103205000D03*
D15*
%TO.P,D10,1*%
%TO.N,Net-(D10-Pad1)*%
X121285000Y-105410000D03*
%TD*%
D14*
%TO.P,D9,2*%
%TO.N,Net-(BT1-Pad1)*%
X121285000Y-70785000D03*
D15*
%TO.P,D9,1*%
%TO.N,Net-(D9-Pad1)*%
X121285000Y-68580000D03*
%TD*%
D14*
%TO.P,D8,2*%
%TO.N,Net-(BT1-Pad1)*%
X114935000Y-103205000D03*
D15*
%TO.P,D8,1*%
%TO.N,Net-(D8-Pad1)*%
X114935000Y-105410000D03*
%TD*%
D14*
%TO.P,D7,2*%
%TO.N,Net-(BT1-Pad1)*%
X114935000Y-70785000D03*
D15*
%TO.P,D7,1*%
%TO.N,Net-(D7-Pad1)*%
X114935000Y-68580000D03*
%TD*%
D14*
%TO.P,D6,2*%
%TO.N,Net-(BT1-Pad1)*%
X108585000Y-103205000D03*
D15*
%TO.P,D6,1*%
%TO.N,Net-(D6-Pad1)*%
X108585000Y-105410000D03*
%TD*%
D14*
%TO.P,D5,2*%
%TO.N,Net-(BT1-Pad1)*%
X108585000Y-70785000D03*
D15*
%TO.P,D5,1*%
%TO.N,Net-(D5-Pad1)*%
X108585000Y-68580000D03*
%TD*%
D12*
%TO.P,D4,2*%
%TO.N,Net-(BT1-Pad1)*%
X101392000Y-96520000D03*
D13*
%TO.P,D4,1*%
%TO.N,Net-(D4-Pad1)*%
X99187000Y-96520000D03*
%TD*%
D12*
%TO.P,D3,2*%
%TO.N,Net-(BT1-Pad1)*%
X101392000Y-90170000D03*
D13*
%TO.P,D3,1*%
%TO.N,Net-(D3-Pad1)*%
X99187000Y-90170000D03*
%TD*%
D12*
%TO.P,D2,2*%
%TO.N,Net-(BT1-Pad1)*%
X101392000Y-83820000D03*
D13*
%TO.P,D2,1*%
%TO.N,Net-(D2-Pad1)*%
X99187000Y-83820000D03*
%TD*%
D12*
%TO.P,D1,2*%
%TO.N,Net-(BT1-Pad1)*%
X101392000Y-77470000D03*
D13*
%TO.P,D1,1*%
%TO.N,Net-(D1-Pad1)*%
X99187000Y-77470000D03*
%TD*%
D16*
%TO.P,BT1,2*%
%TO.N,Net-(BT1-Pad2)*%
X132080000Y-73406000D03*
D17*
%TO.P,BT1,1*%
%TO.N,Net-(BT1-Pad1)*%
X132080000Y-70866000D03*
%TD*%
D18*
%TO.N,Net-(BT1-Pad1)*%
X134493000Y-96520000D02*
X134493000Y-96855000D01*
D19*
X127635000Y-70785000D02*
X108585000Y-70785000D01*
X101392000Y-77470000D02*
X101392000Y-96520000D01*
X134493000Y-96520000D02*
X134493000Y-77470000D01*
X134493000Y-76899998D02*
X134493000Y-77470000D01*
X101392000Y-77470000D02*
X101392000Y-74976000D01*
X105583000Y-70785000D02*
X108585000Y-70785000D01*
X101392000Y-74976000D02*
X105583000Y-70785000D01*
X101392000Y-96520000D02*
X101392000Y-98852000D01*
X105745000Y-103205000D02*
X108585000Y-103205000D01*
X101392000Y-98852000D02*
X105745000Y-103205000D01*
X108585000Y-103205000D02*
X127635000Y-103205000D01*
X127635000Y-103205000D02*
X130475000Y-103205000D01*
X134493000Y-99187000D02*
X134493000Y-96520000D01*
X130475000Y-103205000D02*
X134493000Y-99187000D01*
X127716000Y-70866000D02*
X127635000Y-70785000D01*
X132080000Y-70866000D02*
X127716000Y-70866000D01*
%TO.N,Net-(D1-Pad1)*%
X94107000Y-77470000D02*
X99187000Y-77470000D01*
%TO.N,Net-(D2-Pad1)*%
X94107000Y-83820000D02*
X99187000Y-83820000D01*
%TO.N,Net-(D3-Pad1)*%
X94107000Y-90170000D02*
X99187000Y-90170000D01*
%TO.N,Net-(D4-Pad1)*%
X94107000Y-96520000D02*
X99187000Y-96520000D01*
%TO.N,Net-(D5-Pad1)*%
X108585000Y-63500000D02*
X108585000Y-68580000D01*
%TO.N,Net-(D6-Pad1)*%
X108585000Y-110490000D02*
X108585000Y-105410000D01*
%TO.N,Net-(D7-Pad1)*%
X114935000Y-63500000D02*
X114935000Y-68580000D01*
%TO.N,Net-(D8-Pad1)*%
X114935000Y-110490000D02*
X114935000Y-105410000D01*
%TO.N,Net-(D9-Pad1)*%
X121285000Y-63500000D02*
X121285000Y-68580000D01*
%TO.N,Net-(D10-Pad1)*%
X121285000Y-110490000D02*
X121285000Y-105410000D01*
%TO.N,Net-(D11-Pad1)*%
X127635000Y-63500000D02*
X127635000Y-68580000D01*
%TO.N,Net-(D12-Pad1)*%
X127635000Y-110490000D02*
X127635000Y-105410000D01*
%TO.N,Net-(D13-Pad1)*%
X142113000Y-77470000D02*
X136698000Y-77470000D01*
%TO.N,Net-(D14-Pad1)*%
X142113000Y-83820000D02*
X136698000Y-83820000D01*
%TO.N,Net-(D15-Pad1)*%
X142113000Y-90170000D02*
X136698000Y-90170000D01*
%TO.N,Net-(D16-Pad1)*%
X142113000Y-96520000D02*
X136698000Y-96520000D01*
%TD*%
M02*
