%TF.GenerationSoftware,KiCad,Pcbnew,(5.1.6)-1*%
%TF.CreationDate,2020-10-16T05:05:44-04:00*%
%TF.ProjectId,KiCAD PCB,4b694341-4420-4504-9342-2e6b69636164,rev?*%
%TF.SameCoordinates,Original*%
%TF.FileFunction,Legend,Top*%
%TF.FilePolarity,Positive*%
%FSLAX46Y46*%
G04 Gerber Fmt 4.6, Leading zero omitted, Abs format (unit mm)*
G04 Created by KiCad (PCBNEW (5.1.6)-1) date 2020-10-16 05:05:44*
%MOMM*%
%LPD*%
G01*
G04 APERTURE LIST*
%ADD10C,0.120000*%
%ADD11C,0.150000*%
G04 APERTURE END LIST*
D10*
%TO.C,D16*%
X135648000Y-95380000D02*
X135068000Y-95380000D01*
X135648000Y-97670000D02*
X135068000Y-97670000D01*
%TO.C,D15*%
X135648000Y-89030000D02*
X135068000Y-89030000D01*
X135648000Y-91320000D02*
X135068000Y-91320000D01*
%TO.C,D14*%
X135648000Y-82680000D02*
X135068000Y-82680000D01*
X135648000Y-84970000D02*
X135068000Y-84970000D01*
%TO.C,D13*%
X135648000Y-76330000D02*
X135068000Y-76330000D01*
X135648000Y-78620000D02*
X135068000Y-78620000D01*
%TO.C,D12*%
X128775000Y-104360000D02*
X128775000Y-103780000D01*
X126485000Y-104360000D02*
X126485000Y-103780000D01*
%TO.C,D11*%
X126495000Y-69630000D02*
X126495000Y-70210000D01*
X128785000Y-69630000D02*
X128785000Y-70210000D01*
%TO.C,D10*%
X122425000Y-104360000D02*
X122425000Y-103780000D01*
X120135000Y-104360000D02*
X120135000Y-103780000D01*
%TO.C,D9*%
X120145000Y-69630000D02*
X120145000Y-70210000D01*
X122435000Y-69630000D02*
X122435000Y-70210000D01*
%TO.C,D8*%
X116075000Y-104360000D02*
X116075000Y-103780000D01*
X113785000Y-104360000D02*
X113785000Y-103780000D01*
%TO.C,D7*%
X113795000Y-69630000D02*
X113795000Y-70210000D01*
X116085000Y-69630000D02*
X116085000Y-70210000D01*
%TO.C,D6*%
X109725000Y-104360000D02*
X109725000Y-103780000D01*
X107435000Y-104360000D02*
X107435000Y-103780000D01*
%TO.C,D5*%
X107445000Y-69630000D02*
X107445000Y-70210000D01*
X109735000Y-69630000D02*
X109735000Y-70210000D01*
%TO.C,D4*%
X100237000Y-97660000D02*
X100817000Y-97660000D01*
X100237000Y-95370000D02*
X100817000Y-95370000D01*
%TO.C,D3*%
X100237000Y-91310000D02*
X100817000Y-91310000D01*
X100237000Y-89020000D02*
X100817000Y-89020000D01*
%TO.C,D2*%
X100237000Y-84960000D02*
X100817000Y-84960000D01*
X100237000Y-82670000D02*
X100817000Y-82670000D01*
%TO.C,D1*%
X100237000Y-78610000D02*
X100817000Y-78610000D01*
X100237000Y-76320000D02*
X100817000Y-76320000D01*
%TO.C,BT1*%
X130750000Y-69536000D02*
X132080000Y-69536000D01*
X130750000Y-70866000D02*
X130750000Y-69536000D01*
X130750000Y-72136000D02*
X133410000Y-72136000D01*
X133410000Y-72136000D02*
X133410000Y-74736000D01*
X130750000Y-72136000D02*
X130750000Y-74736000D01*
X130750000Y-74736000D02*
X133410000Y-74736000D01*
%TO.C,D16*%
D11*
X134513714Y-94642380D02*
X134513714Y-93642380D01*
X134751809Y-93642380D01*
X134894666Y-93690000D01*
X134989904Y-93785238D01*
X135037523Y-93880476D01*
X135085142Y-94070952D01*
X135085142Y-94213809D01*
X135037523Y-94404285D01*
X134989904Y-94499523D01*
X134894666Y-94594761D01*
X134751809Y-94642380D01*
X134513714Y-94642380D01*
X136037523Y-94642380D02*
X135466095Y-94642380D01*
X135751809Y-94642380D02*
X135751809Y-93642380D01*
X135656571Y-93785238D01*
X135561333Y-93880476D01*
X135466095Y-93928095D01*
X136894666Y-93642380D02*
X136704190Y-93642380D01*
X136608952Y-93690000D01*
X136561333Y-93737619D01*
X136466095Y-93880476D01*
X136418476Y-94070952D01*
X136418476Y-94451904D01*
X136466095Y-94547142D01*
X136513714Y-94594761D01*
X136608952Y-94642380D01*
X136799428Y-94642380D01*
X136894666Y-94594761D01*
X136942285Y-94547142D01*
X136989904Y-94451904D01*
X136989904Y-94213809D01*
X136942285Y-94118571D01*
X136894666Y-94070952D01*
X136799428Y-94023333D01*
X136608952Y-94023333D01*
X136513714Y-94070952D01*
X136466095Y-94118571D01*
X136418476Y-94213809D01*
%TO.C,D15*%
X134513714Y-88292380D02*
X134513714Y-87292380D01*
X134751809Y-87292380D01*
X134894666Y-87340000D01*
X134989904Y-87435238D01*
X135037523Y-87530476D01*
X135085142Y-87720952D01*
X135085142Y-87863809D01*
X135037523Y-88054285D01*
X134989904Y-88149523D01*
X134894666Y-88244761D01*
X134751809Y-88292380D01*
X134513714Y-88292380D01*
X136037523Y-88292380D02*
X135466095Y-88292380D01*
X135751809Y-88292380D02*
X135751809Y-87292380D01*
X135656571Y-87435238D01*
X135561333Y-87530476D01*
X135466095Y-87578095D01*
X136942285Y-87292380D02*
X136466095Y-87292380D01*
X136418476Y-87768571D01*
X136466095Y-87720952D01*
X136561333Y-87673333D01*
X136799428Y-87673333D01*
X136894666Y-87720952D01*
X136942285Y-87768571D01*
X136989904Y-87863809D01*
X136989904Y-88101904D01*
X136942285Y-88197142D01*
X136894666Y-88244761D01*
X136799428Y-88292380D01*
X136561333Y-88292380D01*
X136466095Y-88244761D01*
X136418476Y-88197142D01*
%TO.C,D14*%
X134513714Y-81942380D02*
X134513714Y-80942380D01*
X134751809Y-80942380D01*
X134894666Y-80990000D01*
X134989904Y-81085238D01*
X135037523Y-81180476D01*
X135085142Y-81370952D01*
X135085142Y-81513809D01*
X135037523Y-81704285D01*
X134989904Y-81799523D01*
X134894666Y-81894761D01*
X134751809Y-81942380D01*
X134513714Y-81942380D01*
X136037523Y-81942380D02*
X135466095Y-81942380D01*
X135751809Y-81942380D02*
X135751809Y-80942380D01*
X135656571Y-81085238D01*
X135561333Y-81180476D01*
X135466095Y-81228095D01*
X136894666Y-81275714D02*
X136894666Y-81942380D01*
X136656571Y-80894761D02*
X136418476Y-81609047D01*
X137037523Y-81609047D01*
%TO.C,D13*%
X134513714Y-75592380D02*
X134513714Y-74592380D01*
X134751809Y-74592380D01*
X134894666Y-74640000D01*
X134989904Y-74735238D01*
X135037523Y-74830476D01*
X135085142Y-75020952D01*
X135085142Y-75163809D01*
X135037523Y-75354285D01*
X134989904Y-75449523D01*
X134894666Y-75544761D01*
X134751809Y-75592380D01*
X134513714Y-75592380D01*
X136037523Y-75592380D02*
X135466095Y-75592380D01*
X135751809Y-75592380D02*
X135751809Y-74592380D01*
X135656571Y-74735238D01*
X135561333Y-74830476D01*
X135466095Y-74878095D01*
X136370857Y-74592380D02*
X136989904Y-74592380D01*
X136656571Y-74973333D01*
X136799428Y-74973333D01*
X136894666Y-75020952D01*
X136942285Y-75068571D01*
X136989904Y-75163809D01*
X136989904Y-75401904D01*
X136942285Y-75497142D01*
X136894666Y-75544761D01*
X136799428Y-75592380D01*
X136513714Y-75592380D01*
X136418476Y-75544761D01*
X136370857Y-75497142D01*
%TO.C,D12*%
X130417380Y-105654285D02*
X129417380Y-105654285D01*
X129417380Y-105416190D01*
X129465000Y-105273333D01*
X129560238Y-105178095D01*
X129655476Y-105130476D01*
X129845952Y-105082857D01*
X129988809Y-105082857D01*
X130179285Y-105130476D01*
X130274523Y-105178095D01*
X130369761Y-105273333D01*
X130417380Y-105416190D01*
X130417380Y-105654285D01*
X130417380Y-104130476D02*
X130417380Y-104701904D01*
X130417380Y-104416190D02*
X129417380Y-104416190D01*
X129560238Y-104511428D01*
X129655476Y-104606666D01*
X129703095Y-104701904D01*
X129512619Y-103749523D02*
X129465000Y-103701904D01*
X129417380Y-103606666D01*
X129417380Y-103368571D01*
X129465000Y-103273333D01*
X129512619Y-103225714D01*
X129607857Y-103178095D01*
X129703095Y-103178095D01*
X129845952Y-103225714D01*
X130417380Y-103797142D01*
X130417380Y-103178095D01*
%TO.C,D11*%
X125757380Y-70764285D02*
X124757380Y-70764285D01*
X124757380Y-70526190D01*
X124805000Y-70383333D01*
X124900238Y-70288095D01*
X124995476Y-70240476D01*
X125185952Y-70192857D01*
X125328809Y-70192857D01*
X125519285Y-70240476D01*
X125614523Y-70288095D01*
X125709761Y-70383333D01*
X125757380Y-70526190D01*
X125757380Y-70764285D01*
X125757380Y-69240476D02*
X125757380Y-69811904D01*
X125757380Y-69526190D02*
X124757380Y-69526190D01*
X124900238Y-69621428D01*
X124995476Y-69716666D01*
X125043095Y-69811904D01*
X125757380Y-68288095D02*
X125757380Y-68859523D01*
X125757380Y-68573809D02*
X124757380Y-68573809D01*
X124900238Y-68669047D01*
X124995476Y-68764285D01*
X125043095Y-68859523D01*
%TO.C,D10*%
X124067380Y-105654285D02*
X123067380Y-105654285D01*
X123067380Y-105416190D01*
X123115000Y-105273333D01*
X123210238Y-105178095D01*
X123305476Y-105130476D01*
X123495952Y-105082857D01*
X123638809Y-105082857D01*
X123829285Y-105130476D01*
X123924523Y-105178095D01*
X124019761Y-105273333D01*
X124067380Y-105416190D01*
X124067380Y-105654285D01*
X124067380Y-104130476D02*
X124067380Y-104701904D01*
X124067380Y-104416190D02*
X123067380Y-104416190D01*
X123210238Y-104511428D01*
X123305476Y-104606666D01*
X123353095Y-104701904D01*
X123067380Y-103511428D02*
X123067380Y-103416190D01*
X123115000Y-103320952D01*
X123162619Y-103273333D01*
X123257857Y-103225714D01*
X123448333Y-103178095D01*
X123686428Y-103178095D01*
X123876904Y-103225714D01*
X123972142Y-103273333D01*
X124019761Y-103320952D01*
X124067380Y-103416190D01*
X124067380Y-103511428D01*
X124019761Y-103606666D01*
X123972142Y-103654285D01*
X123876904Y-103701904D01*
X123686428Y-103749523D01*
X123448333Y-103749523D01*
X123257857Y-103701904D01*
X123162619Y-103654285D01*
X123115000Y-103606666D01*
X123067380Y-103511428D01*
%TO.C,D9*%
X119407380Y-70288095D02*
X118407380Y-70288095D01*
X118407380Y-70050000D01*
X118455000Y-69907142D01*
X118550238Y-69811904D01*
X118645476Y-69764285D01*
X118835952Y-69716666D01*
X118978809Y-69716666D01*
X119169285Y-69764285D01*
X119264523Y-69811904D01*
X119359761Y-69907142D01*
X119407380Y-70050000D01*
X119407380Y-70288095D01*
X119407380Y-69240476D02*
X119407380Y-69050000D01*
X119359761Y-68954761D01*
X119312142Y-68907142D01*
X119169285Y-68811904D01*
X118978809Y-68764285D01*
X118597857Y-68764285D01*
X118502619Y-68811904D01*
X118455000Y-68859523D01*
X118407380Y-68954761D01*
X118407380Y-69145238D01*
X118455000Y-69240476D01*
X118502619Y-69288095D01*
X118597857Y-69335714D01*
X118835952Y-69335714D01*
X118931190Y-69288095D01*
X118978809Y-69240476D01*
X119026428Y-69145238D01*
X119026428Y-68954761D01*
X118978809Y-68859523D01*
X118931190Y-68811904D01*
X118835952Y-68764285D01*
%TO.C,D8*%
X117717380Y-105178095D02*
X116717380Y-105178095D01*
X116717380Y-104940000D01*
X116765000Y-104797142D01*
X116860238Y-104701904D01*
X116955476Y-104654285D01*
X117145952Y-104606666D01*
X117288809Y-104606666D01*
X117479285Y-104654285D01*
X117574523Y-104701904D01*
X117669761Y-104797142D01*
X117717380Y-104940000D01*
X117717380Y-105178095D01*
X117145952Y-104035238D02*
X117098333Y-104130476D01*
X117050714Y-104178095D01*
X116955476Y-104225714D01*
X116907857Y-104225714D01*
X116812619Y-104178095D01*
X116765000Y-104130476D01*
X116717380Y-104035238D01*
X116717380Y-103844761D01*
X116765000Y-103749523D01*
X116812619Y-103701904D01*
X116907857Y-103654285D01*
X116955476Y-103654285D01*
X117050714Y-103701904D01*
X117098333Y-103749523D01*
X117145952Y-103844761D01*
X117145952Y-104035238D01*
X117193571Y-104130476D01*
X117241190Y-104178095D01*
X117336428Y-104225714D01*
X117526904Y-104225714D01*
X117622142Y-104178095D01*
X117669761Y-104130476D01*
X117717380Y-104035238D01*
X117717380Y-103844761D01*
X117669761Y-103749523D01*
X117622142Y-103701904D01*
X117526904Y-103654285D01*
X117336428Y-103654285D01*
X117241190Y-103701904D01*
X117193571Y-103749523D01*
X117145952Y-103844761D01*
%TO.C,D7*%
X113057380Y-70288095D02*
X112057380Y-70288095D01*
X112057380Y-70050000D01*
X112105000Y-69907142D01*
X112200238Y-69811904D01*
X112295476Y-69764285D01*
X112485952Y-69716666D01*
X112628809Y-69716666D01*
X112819285Y-69764285D01*
X112914523Y-69811904D01*
X113009761Y-69907142D01*
X113057380Y-70050000D01*
X113057380Y-70288095D01*
X112057380Y-69383333D02*
X112057380Y-68716666D01*
X113057380Y-69145238D01*
%TO.C,D6*%
X111367380Y-105178095D02*
X110367380Y-105178095D01*
X110367380Y-104940000D01*
X110415000Y-104797142D01*
X110510238Y-104701904D01*
X110605476Y-104654285D01*
X110795952Y-104606666D01*
X110938809Y-104606666D01*
X111129285Y-104654285D01*
X111224523Y-104701904D01*
X111319761Y-104797142D01*
X111367380Y-104940000D01*
X111367380Y-105178095D01*
X110367380Y-103749523D02*
X110367380Y-103940000D01*
X110415000Y-104035238D01*
X110462619Y-104082857D01*
X110605476Y-104178095D01*
X110795952Y-104225714D01*
X111176904Y-104225714D01*
X111272142Y-104178095D01*
X111319761Y-104130476D01*
X111367380Y-104035238D01*
X111367380Y-103844761D01*
X111319761Y-103749523D01*
X111272142Y-103701904D01*
X111176904Y-103654285D01*
X110938809Y-103654285D01*
X110843571Y-103701904D01*
X110795952Y-103749523D01*
X110748333Y-103844761D01*
X110748333Y-104035238D01*
X110795952Y-104130476D01*
X110843571Y-104178095D01*
X110938809Y-104225714D01*
%TO.C,D5*%
X106707380Y-70288095D02*
X105707380Y-70288095D01*
X105707380Y-70050000D01*
X105755000Y-69907142D01*
X105850238Y-69811904D01*
X105945476Y-69764285D01*
X106135952Y-69716666D01*
X106278809Y-69716666D01*
X106469285Y-69764285D01*
X106564523Y-69811904D01*
X106659761Y-69907142D01*
X106707380Y-70050000D01*
X106707380Y-70288095D01*
X105707380Y-68811904D02*
X105707380Y-69288095D01*
X106183571Y-69335714D01*
X106135952Y-69288095D01*
X106088333Y-69192857D01*
X106088333Y-68954761D01*
X106135952Y-68859523D01*
X106183571Y-68811904D01*
X106278809Y-68764285D01*
X106516904Y-68764285D01*
X106612142Y-68811904D01*
X106659761Y-68859523D01*
X106707380Y-68954761D01*
X106707380Y-69192857D01*
X106659761Y-69288095D01*
X106612142Y-69335714D01*
%TO.C,D4*%
X99418904Y-99302380D02*
X99418904Y-98302380D01*
X99657000Y-98302380D01*
X99799857Y-98350000D01*
X99895095Y-98445238D01*
X99942714Y-98540476D01*
X99990333Y-98730952D01*
X99990333Y-98873809D01*
X99942714Y-99064285D01*
X99895095Y-99159523D01*
X99799857Y-99254761D01*
X99657000Y-99302380D01*
X99418904Y-99302380D01*
X100847476Y-98635714D02*
X100847476Y-99302380D01*
X100609380Y-98254761D02*
X100371285Y-98969047D01*
X100990333Y-98969047D01*
%TO.C,D3*%
X99418904Y-92952380D02*
X99418904Y-91952380D01*
X99657000Y-91952380D01*
X99799857Y-92000000D01*
X99895095Y-92095238D01*
X99942714Y-92190476D01*
X99990333Y-92380952D01*
X99990333Y-92523809D01*
X99942714Y-92714285D01*
X99895095Y-92809523D01*
X99799857Y-92904761D01*
X99657000Y-92952380D01*
X99418904Y-92952380D01*
X100323666Y-91952380D02*
X100942714Y-91952380D01*
X100609380Y-92333333D01*
X100752238Y-92333333D01*
X100847476Y-92380952D01*
X100895095Y-92428571D01*
X100942714Y-92523809D01*
X100942714Y-92761904D01*
X100895095Y-92857142D01*
X100847476Y-92904761D01*
X100752238Y-92952380D01*
X100466523Y-92952380D01*
X100371285Y-92904761D01*
X100323666Y-92857142D01*
%TO.C,D2*%
X99418904Y-86602380D02*
X99418904Y-85602380D01*
X99657000Y-85602380D01*
X99799857Y-85650000D01*
X99895095Y-85745238D01*
X99942714Y-85840476D01*
X99990333Y-86030952D01*
X99990333Y-86173809D01*
X99942714Y-86364285D01*
X99895095Y-86459523D01*
X99799857Y-86554761D01*
X99657000Y-86602380D01*
X99418904Y-86602380D01*
X100371285Y-85697619D02*
X100418904Y-85650000D01*
X100514142Y-85602380D01*
X100752238Y-85602380D01*
X100847476Y-85650000D01*
X100895095Y-85697619D01*
X100942714Y-85792857D01*
X100942714Y-85888095D01*
X100895095Y-86030952D01*
X100323666Y-86602380D01*
X100942714Y-86602380D01*
%TO.C,D1*%
X99418904Y-80252380D02*
X99418904Y-79252380D01*
X99657000Y-79252380D01*
X99799857Y-79300000D01*
X99895095Y-79395238D01*
X99942714Y-79490476D01*
X99990333Y-79680952D01*
X99990333Y-79823809D01*
X99942714Y-80014285D01*
X99895095Y-80109523D01*
X99799857Y-80204761D01*
X99657000Y-80252380D01*
X99418904Y-80252380D01*
X100942714Y-80252380D02*
X100371285Y-80252380D01*
X100657000Y-80252380D02*
X100657000Y-79252380D01*
X100561761Y-79395238D01*
X100466523Y-79490476D01*
X100371285Y-79538095D01*
%TO.C,BT1*%
X131294285Y-68464571D02*
X131437142Y-68512190D01*
X131484761Y-68559809D01*
X131532380Y-68655047D01*
X131532380Y-68797904D01*
X131484761Y-68893142D01*
X131437142Y-68940761D01*
X131341904Y-68988380D01*
X130960952Y-68988380D01*
X130960952Y-67988380D01*
X131294285Y-67988380D01*
X131389523Y-68036000D01*
X131437142Y-68083619D01*
X131484761Y-68178857D01*
X131484761Y-68274095D01*
X131437142Y-68369333D01*
X131389523Y-68416952D01*
X131294285Y-68464571D01*
X130960952Y-68464571D01*
X131818095Y-67988380D02*
X132389523Y-67988380D01*
X132103809Y-68988380D02*
X132103809Y-67988380D01*
X133246666Y-68988380D02*
X132675238Y-68988380D01*
X132960952Y-68988380D02*
X132960952Y-67988380D01*
X132865714Y-68131238D01*
X132770476Y-68226476D01*
X132675238Y-68274095D01*
%TD*%
M02*
