M48
; DRILL file {KiCad (5.1.6)-1} date 10/17/20 14:01:37
; FORMAT={2:4/ absolute / inch / suppress leading zeros}
; #@! TF.CreationDate,2020-10-17T14:01:37-04:00
; #@! TF.GenerationSoftware,Kicad,Pcbnew,(5.1.6)-1
; #@! TF.FileFunction,Plated,1,2,PTH
FMAT,2
INCH,TZ
T1C0.0315
T2C0.0394
%
G90
G05
T1
X37050Y-30500
X51950Y-38000
X55950Y-38000
X50250Y-39500
X50250Y-43500
X37050Y-33000
X41050Y-33000
X51950Y-30500
X55950Y-30500
X37050Y-38000
X41050Y-38000
X37050Y-35500
X41050Y-35500
X45250Y-25000
X45250Y-29000
X45250Y-39500
X45250Y-43500
X47750Y-39500
X47750Y-43500
X41050Y-30500
X42750Y-25000
X42750Y-29000
X51950Y-33000
X55950Y-33000
X42750Y-39500
X42750Y-43500
X51950Y-35500
X55950Y-35500
X47750Y-25000
X47750Y-29000
X50250Y-25000
X50250Y-29000
T2
X52000Y-27900
X52000Y-28900
T0
M30
