%TF.GenerationSoftware,KiCad,Pcbnew,(5.1.6)-1*%
%TF.CreationDate,2020-10-16T05:05:44-04:00*%
%TF.ProjectId,KiCAD PCB,4b694341-4420-4504-9342-2e6b69636164,rev?*%
%TF.SameCoordinates,Original*%
%TF.FileFunction,Legend,Bot*%
%TF.FilePolarity,Positive*%
%FSLAX46Y46*%
G04 Gerber Fmt 4.6, Leading zero omitted, Abs format (unit mm)*
G04 Created by KiCad (PCBNEW (5.1.6)-1) date 2020-10-16 05:05:44*
%MOMM*%
%LPD*%
G01*
G04 APERTURE LIST*
%ADD10C,0.120000*%
%ADD11C,0.150000*%
G04 APERTURE END LIST*
D10*
%TO.C,R16*%
X132993000Y-96520000D02*
X133763000Y-96520000D01*
X141073000Y-96520000D02*
X140303000Y-96520000D01*
X133763000Y-95150000D02*
X140303000Y-95150000D01*
X133763000Y-97890000D02*
X133763000Y-95150000D01*
X140303000Y-97890000D02*
X133763000Y-97890000D01*
X140303000Y-95150000D02*
X140303000Y-97890000D01*
%TO.C,R15*%
X132993000Y-90170000D02*
X133763000Y-90170000D01*
X141073000Y-90170000D02*
X140303000Y-90170000D01*
X133763000Y-88800000D02*
X140303000Y-88800000D01*
X133763000Y-91540000D02*
X133763000Y-88800000D01*
X140303000Y-91540000D02*
X133763000Y-91540000D01*
X140303000Y-88800000D02*
X140303000Y-91540000D01*
%TO.C,R14*%
X132993000Y-83820000D02*
X133763000Y-83820000D01*
X141073000Y-83820000D02*
X140303000Y-83820000D01*
X133763000Y-82450000D02*
X140303000Y-82450000D01*
X133763000Y-85190000D02*
X133763000Y-82450000D01*
X140303000Y-85190000D02*
X133763000Y-85190000D01*
X140303000Y-82450000D02*
X140303000Y-85190000D01*
%TO.C,R13*%
X132993000Y-77470000D02*
X133763000Y-77470000D01*
X141073000Y-77470000D02*
X140303000Y-77470000D01*
X133763000Y-76100000D02*
X140303000Y-76100000D01*
X133763000Y-78840000D02*
X133763000Y-76100000D01*
X140303000Y-78840000D02*
X133763000Y-78840000D01*
X140303000Y-76100000D02*
X140303000Y-78840000D01*
%TO.C,R12*%
X127635000Y-109450000D02*
X127635000Y-108680000D01*
X127635000Y-101370000D02*
X127635000Y-102140000D01*
X126265000Y-108680000D02*
X126265000Y-102140000D01*
X129005000Y-108680000D02*
X126265000Y-108680000D01*
X129005000Y-102140000D02*
X129005000Y-108680000D01*
X126265000Y-102140000D02*
X129005000Y-102140000D01*
%TO.C,R11*%
X127635000Y-64540000D02*
X127635000Y-65310000D01*
X127635000Y-72620000D02*
X127635000Y-71850000D01*
X129005000Y-65310000D02*
X129005000Y-71850000D01*
X126265000Y-65310000D02*
X129005000Y-65310000D01*
X126265000Y-71850000D02*
X126265000Y-65310000D01*
X129005000Y-71850000D02*
X126265000Y-71850000D01*
%TO.C,R10*%
X121285000Y-109450000D02*
X121285000Y-108680000D01*
X121285000Y-101370000D02*
X121285000Y-102140000D01*
X119915000Y-108680000D02*
X119915000Y-102140000D01*
X122655000Y-108680000D02*
X119915000Y-108680000D01*
X122655000Y-102140000D02*
X122655000Y-108680000D01*
X119915000Y-102140000D02*
X122655000Y-102140000D01*
%TO.C,R9*%
X121285000Y-64540000D02*
X121285000Y-65310000D01*
X121285000Y-72620000D02*
X121285000Y-71850000D01*
X122655000Y-65310000D02*
X122655000Y-71850000D01*
X119915000Y-65310000D02*
X122655000Y-65310000D01*
X119915000Y-71850000D02*
X119915000Y-65310000D01*
X122655000Y-71850000D02*
X119915000Y-71850000D01*
%TO.C,R8*%
X114935000Y-109450000D02*
X114935000Y-108680000D01*
X114935000Y-101370000D02*
X114935000Y-102140000D01*
X113565000Y-108680000D02*
X113565000Y-102140000D01*
X116305000Y-108680000D02*
X113565000Y-108680000D01*
X116305000Y-102140000D02*
X116305000Y-108680000D01*
X113565000Y-102140000D02*
X116305000Y-102140000D01*
%TO.C,R7*%
X114935000Y-64540000D02*
X114935000Y-65310000D01*
X114935000Y-72620000D02*
X114935000Y-71850000D01*
X116305000Y-65310000D02*
X116305000Y-71850000D01*
X113565000Y-65310000D02*
X116305000Y-65310000D01*
X113565000Y-71850000D02*
X113565000Y-65310000D01*
X116305000Y-71850000D02*
X113565000Y-71850000D01*
%TO.C,R6*%
X108585000Y-109450000D02*
X108585000Y-108680000D01*
X108585000Y-101370000D02*
X108585000Y-102140000D01*
X107215000Y-108680000D02*
X107215000Y-102140000D01*
X109955000Y-108680000D02*
X107215000Y-108680000D01*
X109955000Y-102140000D02*
X109955000Y-108680000D01*
X107215000Y-102140000D02*
X109955000Y-102140000D01*
%TO.C,R5*%
X108585000Y-64540000D02*
X108585000Y-65310000D01*
X108585000Y-72620000D02*
X108585000Y-71850000D01*
X109955000Y-65310000D02*
X109955000Y-71850000D01*
X107215000Y-65310000D02*
X109955000Y-65310000D01*
X107215000Y-71850000D02*
X107215000Y-65310000D01*
X109955000Y-71850000D02*
X107215000Y-71850000D01*
%TO.C,R4*%
X103227000Y-96520000D02*
X102457000Y-96520000D01*
X95147000Y-96520000D02*
X95917000Y-96520000D01*
X102457000Y-97890000D02*
X95917000Y-97890000D01*
X102457000Y-95150000D02*
X102457000Y-97890000D01*
X95917000Y-95150000D02*
X102457000Y-95150000D01*
X95917000Y-97890000D02*
X95917000Y-95150000D01*
%TO.C,R3*%
X103227000Y-90170000D02*
X102457000Y-90170000D01*
X95147000Y-90170000D02*
X95917000Y-90170000D01*
X102457000Y-91540000D02*
X95917000Y-91540000D01*
X102457000Y-88800000D02*
X102457000Y-91540000D01*
X95917000Y-88800000D02*
X102457000Y-88800000D01*
X95917000Y-91540000D02*
X95917000Y-88800000D01*
%TO.C,R2*%
X103227000Y-83820000D02*
X102457000Y-83820000D01*
X95147000Y-83820000D02*
X95917000Y-83820000D01*
X102457000Y-85190000D02*
X95917000Y-85190000D01*
X102457000Y-82450000D02*
X102457000Y-85190000D01*
X95917000Y-82450000D02*
X102457000Y-82450000D01*
X95917000Y-85190000D02*
X95917000Y-82450000D01*
%TO.C,R1*%
X103227000Y-77470000D02*
X102457000Y-77470000D01*
X95147000Y-77470000D02*
X95917000Y-77470000D01*
X102457000Y-78840000D02*
X95917000Y-78840000D01*
X102457000Y-76100000D02*
X102457000Y-78840000D01*
X95917000Y-76100000D02*
X102457000Y-76100000D01*
X95917000Y-78840000D02*
X95917000Y-76100000D01*
%TO.C,R16*%
D11*
X137675857Y-94602380D02*
X138009190Y-94126190D01*
X138247285Y-94602380D02*
X138247285Y-93602380D01*
X137866333Y-93602380D01*
X137771095Y-93650000D01*
X137723476Y-93697619D01*
X137675857Y-93792857D01*
X137675857Y-93935714D01*
X137723476Y-94030952D01*
X137771095Y-94078571D01*
X137866333Y-94126190D01*
X138247285Y-94126190D01*
X136723476Y-94602380D02*
X137294904Y-94602380D01*
X137009190Y-94602380D02*
X137009190Y-93602380D01*
X137104428Y-93745238D01*
X137199666Y-93840476D01*
X137294904Y-93888095D01*
X135866333Y-93602380D02*
X136056809Y-93602380D01*
X136152047Y-93650000D01*
X136199666Y-93697619D01*
X136294904Y-93840476D01*
X136342523Y-94030952D01*
X136342523Y-94411904D01*
X136294904Y-94507142D01*
X136247285Y-94554761D01*
X136152047Y-94602380D01*
X135961571Y-94602380D01*
X135866333Y-94554761D01*
X135818714Y-94507142D01*
X135771095Y-94411904D01*
X135771095Y-94173809D01*
X135818714Y-94078571D01*
X135866333Y-94030952D01*
X135961571Y-93983333D01*
X136152047Y-93983333D01*
X136247285Y-94030952D01*
X136294904Y-94078571D01*
X136342523Y-94173809D01*
%TO.C,R15*%
X137675857Y-88252380D02*
X138009190Y-87776190D01*
X138247285Y-88252380D02*
X138247285Y-87252380D01*
X137866333Y-87252380D01*
X137771095Y-87300000D01*
X137723476Y-87347619D01*
X137675857Y-87442857D01*
X137675857Y-87585714D01*
X137723476Y-87680952D01*
X137771095Y-87728571D01*
X137866333Y-87776190D01*
X138247285Y-87776190D01*
X136723476Y-88252380D02*
X137294904Y-88252380D01*
X137009190Y-88252380D02*
X137009190Y-87252380D01*
X137104428Y-87395238D01*
X137199666Y-87490476D01*
X137294904Y-87538095D01*
X135818714Y-87252380D02*
X136294904Y-87252380D01*
X136342523Y-87728571D01*
X136294904Y-87680952D01*
X136199666Y-87633333D01*
X135961571Y-87633333D01*
X135866333Y-87680952D01*
X135818714Y-87728571D01*
X135771095Y-87823809D01*
X135771095Y-88061904D01*
X135818714Y-88157142D01*
X135866333Y-88204761D01*
X135961571Y-88252380D01*
X136199666Y-88252380D01*
X136294904Y-88204761D01*
X136342523Y-88157142D01*
%TO.C,R14*%
X137675857Y-81902380D02*
X138009190Y-81426190D01*
X138247285Y-81902380D02*
X138247285Y-80902380D01*
X137866333Y-80902380D01*
X137771095Y-80950000D01*
X137723476Y-80997619D01*
X137675857Y-81092857D01*
X137675857Y-81235714D01*
X137723476Y-81330952D01*
X137771095Y-81378571D01*
X137866333Y-81426190D01*
X138247285Y-81426190D01*
X136723476Y-81902380D02*
X137294904Y-81902380D01*
X137009190Y-81902380D02*
X137009190Y-80902380D01*
X137104428Y-81045238D01*
X137199666Y-81140476D01*
X137294904Y-81188095D01*
X135866333Y-81235714D02*
X135866333Y-81902380D01*
X136104428Y-80854761D02*
X136342523Y-81569047D01*
X135723476Y-81569047D01*
%TO.C,R13*%
X137675857Y-75552380D02*
X138009190Y-75076190D01*
X138247285Y-75552380D02*
X138247285Y-74552380D01*
X137866333Y-74552380D01*
X137771095Y-74600000D01*
X137723476Y-74647619D01*
X137675857Y-74742857D01*
X137675857Y-74885714D01*
X137723476Y-74980952D01*
X137771095Y-75028571D01*
X137866333Y-75076190D01*
X138247285Y-75076190D01*
X136723476Y-75552380D02*
X137294904Y-75552380D01*
X137009190Y-75552380D02*
X137009190Y-74552380D01*
X137104428Y-74695238D01*
X137199666Y-74790476D01*
X137294904Y-74838095D01*
X136390142Y-74552380D02*
X135771095Y-74552380D01*
X136104428Y-74933333D01*
X135961571Y-74933333D01*
X135866333Y-74980952D01*
X135818714Y-75028571D01*
X135771095Y-75123809D01*
X135771095Y-75361904D01*
X135818714Y-75457142D01*
X135866333Y-75504761D01*
X135961571Y-75552380D01*
X136247285Y-75552380D01*
X136342523Y-75504761D01*
X136390142Y-75457142D01*
%TO.C,R12*%
X125717380Y-104767142D02*
X125241190Y-104433809D01*
X125717380Y-104195714D02*
X124717380Y-104195714D01*
X124717380Y-104576666D01*
X124765000Y-104671904D01*
X124812619Y-104719523D01*
X124907857Y-104767142D01*
X125050714Y-104767142D01*
X125145952Y-104719523D01*
X125193571Y-104671904D01*
X125241190Y-104576666D01*
X125241190Y-104195714D01*
X125717380Y-105719523D02*
X125717380Y-105148095D01*
X125717380Y-105433809D02*
X124717380Y-105433809D01*
X124860238Y-105338571D01*
X124955476Y-105243333D01*
X125003095Y-105148095D01*
X124812619Y-106100476D02*
X124765000Y-106148095D01*
X124717380Y-106243333D01*
X124717380Y-106481428D01*
X124765000Y-106576666D01*
X124812619Y-106624285D01*
X124907857Y-106671904D01*
X125003095Y-106671904D01*
X125145952Y-106624285D01*
X125717380Y-106052857D01*
X125717380Y-106671904D01*
%TO.C,R11*%
X130457380Y-67937142D02*
X129981190Y-67603809D01*
X130457380Y-67365714D02*
X129457380Y-67365714D01*
X129457380Y-67746666D01*
X129505000Y-67841904D01*
X129552619Y-67889523D01*
X129647857Y-67937142D01*
X129790714Y-67937142D01*
X129885952Y-67889523D01*
X129933571Y-67841904D01*
X129981190Y-67746666D01*
X129981190Y-67365714D01*
X130457380Y-68889523D02*
X130457380Y-68318095D01*
X130457380Y-68603809D02*
X129457380Y-68603809D01*
X129600238Y-68508571D01*
X129695476Y-68413333D01*
X129743095Y-68318095D01*
X130457380Y-69841904D02*
X130457380Y-69270476D01*
X130457380Y-69556190D02*
X129457380Y-69556190D01*
X129600238Y-69460952D01*
X129695476Y-69365714D01*
X129743095Y-69270476D01*
%TO.C,R10*%
X119367380Y-104767142D02*
X118891190Y-104433809D01*
X119367380Y-104195714D02*
X118367380Y-104195714D01*
X118367380Y-104576666D01*
X118415000Y-104671904D01*
X118462619Y-104719523D01*
X118557857Y-104767142D01*
X118700714Y-104767142D01*
X118795952Y-104719523D01*
X118843571Y-104671904D01*
X118891190Y-104576666D01*
X118891190Y-104195714D01*
X119367380Y-105719523D02*
X119367380Y-105148095D01*
X119367380Y-105433809D02*
X118367380Y-105433809D01*
X118510238Y-105338571D01*
X118605476Y-105243333D01*
X118653095Y-105148095D01*
X118367380Y-106338571D02*
X118367380Y-106433809D01*
X118415000Y-106529047D01*
X118462619Y-106576666D01*
X118557857Y-106624285D01*
X118748333Y-106671904D01*
X118986428Y-106671904D01*
X119176904Y-106624285D01*
X119272142Y-106576666D01*
X119319761Y-106529047D01*
X119367380Y-106433809D01*
X119367380Y-106338571D01*
X119319761Y-106243333D01*
X119272142Y-106195714D01*
X119176904Y-106148095D01*
X118986428Y-106100476D01*
X118748333Y-106100476D01*
X118557857Y-106148095D01*
X118462619Y-106195714D01*
X118415000Y-106243333D01*
X118367380Y-106338571D01*
%TO.C,R9*%
X124107380Y-68413333D02*
X123631190Y-68080000D01*
X124107380Y-67841904D02*
X123107380Y-67841904D01*
X123107380Y-68222857D01*
X123155000Y-68318095D01*
X123202619Y-68365714D01*
X123297857Y-68413333D01*
X123440714Y-68413333D01*
X123535952Y-68365714D01*
X123583571Y-68318095D01*
X123631190Y-68222857D01*
X123631190Y-67841904D01*
X124107380Y-68889523D02*
X124107380Y-69080000D01*
X124059761Y-69175238D01*
X124012142Y-69222857D01*
X123869285Y-69318095D01*
X123678809Y-69365714D01*
X123297857Y-69365714D01*
X123202619Y-69318095D01*
X123155000Y-69270476D01*
X123107380Y-69175238D01*
X123107380Y-68984761D01*
X123155000Y-68889523D01*
X123202619Y-68841904D01*
X123297857Y-68794285D01*
X123535952Y-68794285D01*
X123631190Y-68841904D01*
X123678809Y-68889523D01*
X123726428Y-68984761D01*
X123726428Y-69175238D01*
X123678809Y-69270476D01*
X123631190Y-69318095D01*
X123535952Y-69365714D01*
%TO.C,R8*%
X113017380Y-105243333D02*
X112541190Y-104910000D01*
X113017380Y-104671904D02*
X112017380Y-104671904D01*
X112017380Y-105052857D01*
X112065000Y-105148095D01*
X112112619Y-105195714D01*
X112207857Y-105243333D01*
X112350714Y-105243333D01*
X112445952Y-105195714D01*
X112493571Y-105148095D01*
X112541190Y-105052857D01*
X112541190Y-104671904D01*
X112445952Y-105814761D02*
X112398333Y-105719523D01*
X112350714Y-105671904D01*
X112255476Y-105624285D01*
X112207857Y-105624285D01*
X112112619Y-105671904D01*
X112065000Y-105719523D01*
X112017380Y-105814761D01*
X112017380Y-106005238D01*
X112065000Y-106100476D01*
X112112619Y-106148095D01*
X112207857Y-106195714D01*
X112255476Y-106195714D01*
X112350714Y-106148095D01*
X112398333Y-106100476D01*
X112445952Y-106005238D01*
X112445952Y-105814761D01*
X112493571Y-105719523D01*
X112541190Y-105671904D01*
X112636428Y-105624285D01*
X112826904Y-105624285D01*
X112922142Y-105671904D01*
X112969761Y-105719523D01*
X113017380Y-105814761D01*
X113017380Y-106005238D01*
X112969761Y-106100476D01*
X112922142Y-106148095D01*
X112826904Y-106195714D01*
X112636428Y-106195714D01*
X112541190Y-106148095D01*
X112493571Y-106100476D01*
X112445952Y-106005238D01*
%TO.C,R7*%
X117757380Y-68413333D02*
X117281190Y-68080000D01*
X117757380Y-67841904D02*
X116757380Y-67841904D01*
X116757380Y-68222857D01*
X116805000Y-68318095D01*
X116852619Y-68365714D01*
X116947857Y-68413333D01*
X117090714Y-68413333D01*
X117185952Y-68365714D01*
X117233571Y-68318095D01*
X117281190Y-68222857D01*
X117281190Y-67841904D01*
X116757380Y-68746666D02*
X116757380Y-69413333D01*
X117757380Y-68984761D01*
%TO.C,R6*%
X106667380Y-105243333D02*
X106191190Y-104910000D01*
X106667380Y-104671904D02*
X105667380Y-104671904D01*
X105667380Y-105052857D01*
X105715000Y-105148095D01*
X105762619Y-105195714D01*
X105857857Y-105243333D01*
X106000714Y-105243333D01*
X106095952Y-105195714D01*
X106143571Y-105148095D01*
X106191190Y-105052857D01*
X106191190Y-104671904D01*
X105667380Y-106100476D02*
X105667380Y-105910000D01*
X105715000Y-105814761D01*
X105762619Y-105767142D01*
X105905476Y-105671904D01*
X106095952Y-105624285D01*
X106476904Y-105624285D01*
X106572142Y-105671904D01*
X106619761Y-105719523D01*
X106667380Y-105814761D01*
X106667380Y-106005238D01*
X106619761Y-106100476D01*
X106572142Y-106148095D01*
X106476904Y-106195714D01*
X106238809Y-106195714D01*
X106143571Y-106148095D01*
X106095952Y-106100476D01*
X106048333Y-106005238D01*
X106048333Y-105814761D01*
X106095952Y-105719523D01*
X106143571Y-105671904D01*
X106238809Y-105624285D01*
%TO.C,R5*%
X111407380Y-68413333D02*
X110931190Y-68080000D01*
X111407380Y-67841904D02*
X110407380Y-67841904D01*
X110407380Y-68222857D01*
X110455000Y-68318095D01*
X110502619Y-68365714D01*
X110597857Y-68413333D01*
X110740714Y-68413333D01*
X110835952Y-68365714D01*
X110883571Y-68318095D01*
X110931190Y-68222857D01*
X110931190Y-67841904D01*
X110407380Y-69318095D02*
X110407380Y-68841904D01*
X110883571Y-68794285D01*
X110835952Y-68841904D01*
X110788333Y-68937142D01*
X110788333Y-69175238D01*
X110835952Y-69270476D01*
X110883571Y-69318095D01*
X110978809Y-69365714D01*
X111216904Y-69365714D01*
X111312142Y-69318095D01*
X111359761Y-69270476D01*
X111407380Y-69175238D01*
X111407380Y-68937142D01*
X111359761Y-68841904D01*
X111312142Y-68794285D01*
%TO.C,R4*%
X99353666Y-99342380D02*
X99687000Y-98866190D01*
X99925095Y-99342380D02*
X99925095Y-98342380D01*
X99544142Y-98342380D01*
X99448904Y-98390000D01*
X99401285Y-98437619D01*
X99353666Y-98532857D01*
X99353666Y-98675714D01*
X99401285Y-98770952D01*
X99448904Y-98818571D01*
X99544142Y-98866190D01*
X99925095Y-98866190D01*
X98496523Y-98675714D02*
X98496523Y-99342380D01*
X98734619Y-98294761D02*
X98972714Y-99009047D01*
X98353666Y-99009047D01*
%TO.C,R3*%
X99353666Y-92992380D02*
X99687000Y-92516190D01*
X99925095Y-92992380D02*
X99925095Y-91992380D01*
X99544142Y-91992380D01*
X99448904Y-92040000D01*
X99401285Y-92087619D01*
X99353666Y-92182857D01*
X99353666Y-92325714D01*
X99401285Y-92420952D01*
X99448904Y-92468571D01*
X99544142Y-92516190D01*
X99925095Y-92516190D01*
X99020333Y-91992380D02*
X98401285Y-91992380D01*
X98734619Y-92373333D01*
X98591761Y-92373333D01*
X98496523Y-92420952D01*
X98448904Y-92468571D01*
X98401285Y-92563809D01*
X98401285Y-92801904D01*
X98448904Y-92897142D01*
X98496523Y-92944761D01*
X98591761Y-92992380D01*
X98877476Y-92992380D01*
X98972714Y-92944761D01*
X99020333Y-92897142D01*
%TO.C,R2*%
X99353666Y-86642380D02*
X99687000Y-86166190D01*
X99925095Y-86642380D02*
X99925095Y-85642380D01*
X99544142Y-85642380D01*
X99448904Y-85690000D01*
X99401285Y-85737619D01*
X99353666Y-85832857D01*
X99353666Y-85975714D01*
X99401285Y-86070952D01*
X99448904Y-86118571D01*
X99544142Y-86166190D01*
X99925095Y-86166190D01*
X98972714Y-85737619D02*
X98925095Y-85690000D01*
X98829857Y-85642380D01*
X98591761Y-85642380D01*
X98496523Y-85690000D01*
X98448904Y-85737619D01*
X98401285Y-85832857D01*
X98401285Y-85928095D01*
X98448904Y-86070952D01*
X99020333Y-86642380D01*
X98401285Y-86642380D01*
%TO.C,R1*%
X99353666Y-80292380D02*
X99687000Y-79816190D01*
X99925095Y-80292380D02*
X99925095Y-79292380D01*
X99544142Y-79292380D01*
X99448904Y-79340000D01*
X99401285Y-79387619D01*
X99353666Y-79482857D01*
X99353666Y-79625714D01*
X99401285Y-79720952D01*
X99448904Y-79768571D01*
X99544142Y-79816190D01*
X99925095Y-79816190D01*
X98401285Y-80292380D02*
X98972714Y-80292380D01*
X98687000Y-80292380D02*
X98687000Y-79292380D01*
X98782238Y-79435238D01*
X98877476Y-79530476D01*
X98972714Y-79578095D01*
%TD*%
M02*
