%TF.GenerationSoftware,KiCad,Pcbnew,(5.1.6)-1*%
%TF.CreationDate,2020-10-17T14:01:34-04:00*%
%TF.ProjectId,KiCAD PCB,4b694341-4420-4504-9342-2e6b69636164,rev?*%
%TF.SameCoordinates,Original*%
%TF.FileFunction,Copper,L2,Bot*%
%TF.FilePolarity,Positive*%
%FSLAX46Y46*%
G04 Gerber Fmt 4.6, Leading zero omitted, Abs format (unit mm)*
G04 Created by KiCad (PCBNEW (5.1.6)-1) date 2020-10-17 14:01:34*
%MOMM*%
%LPD*%
G01*
G04 APERTURE LIST*
%TA.AperFunction,ComponentPad*%
%ADD10O,1.600000X1.600000*%
%TD*%
%TA.AperFunction,ComponentPad*%
%ADD11C,1.600000*%
%TD*%
%TA.AperFunction,ComponentPad*%
%ADD12O,1.700000X1.700000*%
%TD*%
%TA.AperFunction,ComponentPad*%
%ADD13R,1.700000X1.700000*%
%TD*%
%TA.AperFunction,Conductor*%
%ADD14C,0.750000*%
%TD*%
G04 APERTURE END LIST*
D10*
%TO.P,R16,2*%
%TO.N,Net-(BT1-Pad2)*%
X131953000Y-96520000D03*
D11*
%TO.P,R16,1*%
%TO.N,Net-(D16-Pad1)*%
X142113000Y-96520000D03*
%TD*%
D10*
%TO.P,R15,2*%
%TO.N,Net-(BT1-Pad2)*%
X131953000Y-90170000D03*
D11*
%TO.P,R15,1*%
%TO.N,Net-(D15-Pad1)*%
X142113000Y-90170000D03*
%TD*%
D10*
%TO.P,R14,2*%
%TO.N,Net-(BT1-Pad2)*%
X131953000Y-83820000D03*
D11*
%TO.P,R14,1*%
%TO.N,Net-(D14-Pad1)*%
X142113000Y-83820000D03*
%TD*%
D10*
%TO.P,R13,2*%
%TO.N,Net-(BT1-Pad2)*%
X131953000Y-77470000D03*
D11*
%TO.P,R13,1*%
%TO.N,Net-(D13-Pad1)*%
X142113000Y-77470000D03*
%TD*%
D10*
%TO.P,R12,2*%
%TO.N,Net-(D12-Pad1)*%
X127635000Y-110490000D03*
D11*
%TO.P,R12,1*%
%TO.N,Net-(BT1-Pad2)*%
X127635000Y-100330000D03*
%TD*%
D10*
%TO.P,R11,2*%
%TO.N,Net-(D11-Pad1)*%
X127635000Y-63500000D03*
D11*
%TO.P,R11,1*%
%TO.N,Net-(BT1-Pad2)*%
X127635000Y-73660000D03*
%TD*%
D10*
%TO.P,R10,2*%
%TO.N,Net-(D10-Pad1)*%
X121285000Y-110490000D03*
D11*
%TO.P,R10,1*%
%TO.N,Net-(BT1-Pad2)*%
X121285000Y-100330000D03*
%TD*%
D10*
%TO.P,R9,2*%
%TO.N,Net-(D9-Pad1)*%
X121285000Y-63500000D03*
D11*
%TO.P,R9,1*%
%TO.N,Net-(BT1-Pad2)*%
X121285000Y-73660000D03*
%TD*%
D10*
%TO.P,R8,2*%
%TO.N,Net-(D8-Pad1)*%
X114935000Y-110490000D03*
D11*
%TO.P,R8,1*%
%TO.N,Net-(BT1-Pad2)*%
X114935000Y-100330000D03*
%TD*%
D10*
%TO.P,R7,2*%
%TO.N,Net-(D7-Pad1)*%
X114935000Y-63500000D03*
D11*
%TO.P,R7,1*%
%TO.N,Net-(BT1-Pad2)*%
X114935000Y-73660000D03*
%TD*%
D10*
%TO.P,R6,2*%
%TO.N,Net-(D6-Pad1)*%
X108585000Y-110490000D03*
D11*
%TO.P,R6,1*%
%TO.N,Net-(BT1-Pad2)*%
X108585000Y-100330000D03*
%TD*%
D10*
%TO.P,R5,2*%
%TO.N,Net-(D5-Pad1)*%
X108585000Y-63500000D03*
D11*
%TO.P,R5,1*%
%TO.N,Net-(BT1-Pad2)*%
X108585000Y-73660000D03*
%TD*%
D10*
%TO.P,R4,2*%
%TO.N,Net-(BT1-Pad2)*%
X104267000Y-96520000D03*
D11*
%TO.P,R4,1*%
%TO.N,Net-(D4-Pad1)*%
X94107000Y-96520000D03*
%TD*%
D10*
%TO.P,R3,2*%
%TO.N,Net-(BT1-Pad2)*%
X104267000Y-90170000D03*
D11*
%TO.P,R3,1*%
%TO.N,Net-(D3-Pad1)*%
X94107000Y-90170000D03*
%TD*%
D10*
%TO.P,R2,2*%
%TO.N,Net-(BT1-Pad2)*%
X104267000Y-83820000D03*
D11*
%TO.P,R2,1*%
%TO.N,Net-(D2-Pad1)*%
X94107000Y-83820000D03*
%TD*%
D10*
%TO.P,R1,2*%
%TO.N,Net-(BT1-Pad2)*%
X104267000Y-77470000D03*
D11*
%TO.P,R1,1*%
%TO.N,Net-(D1-Pad1)*%
X94107000Y-77470000D03*
%TD*%
D12*
%TO.P,BT1,2*%
%TO.N,Net-(BT1-Pad2)*%
X132080000Y-73406000D03*
D13*
%TO.P,BT1,1*%
%TO.N,Net-(BT1-Pad1)*%
X132080000Y-70866000D03*
%TD*%
D14*
%TO.N,Net-(BT1-Pad2)*%
X131953000Y-77470000D02*
X131953000Y-96520000D01*
X127635000Y-100330000D02*
X108585000Y-100330000D01*
X104267000Y-96520000D02*
X104267000Y-77470000D01*
X108585000Y-73660000D02*
X127635000Y-73660000D01*
X104267000Y-74930000D02*
X104267000Y-77470000D01*
X108585000Y-73660000D02*
X105537000Y-73660000D01*
X105537000Y-73660000D02*
X104267000Y-74930000D01*
X105410000Y-100330000D02*
X108585000Y-100330000D01*
X104267000Y-96520000D02*
X104267000Y-99187000D01*
X104267000Y-99187000D02*
X105410000Y-100330000D01*
X127635000Y-100330000D02*
X130302000Y-100330000D01*
X131953000Y-96520000D02*
X131953000Y-99187000D01*
X130810000Y-100330000D02*
X130302000Y-100330000D01*
X131953000Y-99187000D02*
X130810000Y-100330000D01*
X132080000Y-77343000D02*
X131953000Y-77470000D01*
X132080000Y-73406000D02*
X132080000Y-77343000D01*
%TD*%
M02*
